<svg width="626" height="477" viewBox="0 0 626 477" fill="none" xmlns="http://www.w3.org/2000/svg">
<g clip-path="url(#clip0)">
<path opacity="0.1" d="M115.271 212.94C115.271 212.94 114.465 262.613 123.324 278.957C132.182 295.301 135.978 366.402 135.978 366.402C135.978 366.402 228.838 375.952 293.547 354.965C358.257 333.977 495.948 325.393 495.948 325.393L472.744 169.906C472.744 169.906 358.113 162.598 292.903 193.519C227.693 224.44 115.271 212.94 115.271 212.94Z" fill="black"/>
<path d="M547.357 472.829H0V476.974H547.357V472.829Z" fill="#85848B"/>
<path d="M433.649 399.639C433.649 402.828 415.715 412.123 394.411 412.123C373.108 412.123 356.509 402.828 356.509 399.639C356.509 396.451 373.775 397.478 395.1 397.478C416.424 397.478 433.649 396.445 433.649 399.639Z" fill="#504F60"/>
<path opacity="0.2" d="M433.649 399.639C433.649 402.828 415.715 412.123 394.411 412.123C373.108 412.123 356.509 402.828 356.509 399.639" fill="black"/>
<path d="M219.109 341.133C222.566 341.592 226.154 341.884 229.466 340.771C229.987 340.603 230.561 340.23 230.509 339.69C230.471 339.494 230.391 339.309 230.274 339.149C229.026 337.209 227.977 335.139 227.145 332.972C227.112 332.859 227.044 332.761 226.952 332.691C226.844 332.651 226.726 332.651 226.618 332.691C225.09 333.108 223.771 334.129 222.253 334.567C221.479 334.787 220.672 334.849 219.875 334.75C219.187 334.669 218.248 334.08 217.622 334.156C217.977 336.518 218.843 338.723 219.109 341.133Z" fill="#6D6D6B"/>
<path d="M284.5 335.15C286.779 333.529 289.141 331.827 290.487 329.325C290.583 329.175 290.638 329.001 290.648 328.822C290.625 328.645 290.559 328.478 290.455 328.336C289.174 326.224 287.524 324.379 285.59 322.893C284.581 323.632 283.669 324.504 282.878 325.488C282.304 326.114 280.719 327.109 280.703 328.065C280.703 328.606 281.308 329.233 281.59 329.687C281.97 330.27 282.33 330.865 282.674 331.47C282.873 331.767 284.682 335.031 284.5 335.15Z" fill="#6D6D6B"/>
<path d="M232.663 348.369C232.703 348.926 232.556 349.48 232.245 349.936C232.002 350.19 231.701 350.376 231.369 350.477C226.535 352.271 220.939 350.034 216.115 351.801C215.124 352.163 214.186 352.687 213.19 353.033C212.002 353.403 210.777 353.628 209.539 353.703C207.834 353.871 206.118 353.979 204.408 354.027C203.108 354.123 201.802 354.004 200.538 353.676C199.906 353.508 199.315 353.205 198.804 352.785C198.293 352.365 197.872 351.838 197.571 351.239C197.308 350.702 197.256 350.08 197.425 349.504C197.5 349.306 197.608 349.124 197.743 348.964C198.07 348.584 198.454 348.261 198.88 348.007L200.658 346.818C201.492 346.207 202.398 345.709 203.354 345.337C204.058 345.1 204.804 344.997 205.518 344.797C208.016 344.04 209.925 341.987 211.698 340.014L214.118 337.339C214.344 337.045 214.631 336.807 214.958 336.642C215.293 336.526 215.65 336.491 216.001 336.539C218.351 336.713 220.621 337.501 222.598 338.831C223.103 339.223 223.648 339.557 224.225 339.825C225.643 340.398 227.463 339.966 228.772 339.241C229.393 338.895 229.257 338.701 229.518 338.085C229.779 337.469 230.415 337.074 230.968 337.636C231.134 337.831 231.253 338.064 231.312 338.317C231.833 340.101 231.635 342.019 231.635 343.889C231.62 344.181 231.655 344.474 231.739 344.754C231.873 345.035 232.031 345.303 232.214 345.554C232.251 345.62 232.284 345.688 232.313 345.759C232.632 346.587 232.752 347.483 232.663 348.369V348.369Z" fill="#6D6D6B"/>
<path d="M232.663 348.369C232.703 348.926 232.556 349.48 232.245 349.936C232.002 350.19 231.701 350.376 231.369 350.477C226.535 352.271 220.939 350.034 216.115 351.801C215.124 352.163 214.186 352.687 213.19 353.033C212.002 353.403 210.777 353.628 209.539 353.703C207.834 353.871 206.118 353.979 204.408 354.027C203.108 354.123 201.802 354.004 200.538 353.676C199.906 353.508 199.315 353.205 198.804 352.785C198.293 352.365 197.872 351.838 197.571 351.239C197.308 350.702 197.256 350.08 197.425 349.504C197.5 349.306 197.608 349.124 197.743 348.964C198.024 349.574 198.228 350.385 198.405 350.677C198.645 351.109 198.97 351.484 199.361 351.775C199.751 352.067 200.197 352.269 200.668 352.368C201.374 352.413 202.082 352.32 202.754 352.093C207.135 350.969 211.792 350.952 216.001 349.25C217.445 348.661 218.822 347.877 220.339 347.521C221.857 347.164 223.468 347.261 225.033 347.126C227.505 346.921 229.899 346.148 232.334 345.743C232.648 346.577 232.761 347.479 232.663 348.369V348.369Z" fill="#1B1A17"/>
<path d="M295.571 334.821C295.342 336.723 294.179 338.36 292.901 339.749C291.624 341.138 290.179 342.387 289.162 343.986C287.91 345.97 287.347 348.429 285.72 350.104C285.096 350.713 284.394 351.231 283.634 351.644C282.783 352.164 281.883 352.594 280.948 352.925C278.518 353.73 275.9 353.546 273.361 353.352C272.536 353.344 271.72 353.181 270.951 352.871C270.601 352.687 270.267 352.473 269.95 352.233C269.313 351.827 268.777 351.272 268.385 350.612C268.193 350.253 268.139 349.832 268.234 349.434C268.379 348.995 268.629 348.601 268.959 348.288C269.531 347.672 270.144 347.1 270.795 346.575C271.688 345.978 272.492 345.25 273.183 344.413C273.607 343.752 273.919 343.021 274.106 342.252C274.476 340.903 274.701 339.517 274.779 338.117C274.776 337.187 274.869 336.26 275.055 335.35C275.441 333.924 276.464 332.648 276.349 331.173C276.302 330.962 276.321 330.741 276.401 330.54C276.522 330.384 276.692 330.275 276.881 330.232C277.678 329.903 278.518 329.701 279.373 329.633C279.803 329.602 280.233 329.67 280.633 329.833C281.034 329.996 281.394 330.248 281.689 330.573C282.044 331.016 282.278 331.654 282.8 331.827C283.058 331.9 283.329 331.911 283.592 331.859C284.875 331.724 286.231 331.557 287.243 330.697C287.711 330.263 288.086 329.732 288.347 329.14C288.607 328.547 288.746 327.906 288.755 327.255C288.755 326.763 288.541 326.25 289.277 326.174C289.83 326.098 290.268 326.714 290.549 327.093C291.566 328.503 292.609 329.978 292.99 331.697C293.138 331.637 293.295 331.606 293.454 331.605C293.779 331.602 294.1 331.681 294.39 331.834C294.68 331.987 294.929 332.211 295.118 332.486C295.533 333.183 295.694 334.011 295.571 334.821Z" fill="#6D6D6B"/>
<path d="M295.571 334.821C295.342 336.723 294.179 338.36 292.901 339.749C291.623 341.138 290.179 342.387 289.162 343.986C287.91 345.97 287.347 348.429 285.72 350.104C285.095 350.713 284.394 351.231 283.634 351.644C282.783 352.164 281.883 352.594 280.948 352.925C278.518 353.73 275.9 353.546 273.36 353.352C272.536 353.344 271.72 353.181 270.951 352.871C270.601 352.687 270.266 352.473 269.95 352.233C269.313 351.827 268.777 351.272 268.385 350.612C268.874 350.368 269.407 350.236 269.95 350.223C271.076 350.288 271.9 351.39 272.98 351.731C274.518 352.212 276.051 351.087 277.611 350.704C278.628 350.455 279.697 350.52 280.703 350.163C281.542 349.827 282.317 349.341 282.992 348.726C283.919 348.04 284.743 347.217 285.438 346.283C286.016 345.349 286.497 344.355 286.872 343.316C287.696 341.326 288.665 339.403 289.772 337.566C289.936 337.275 290.134 337.006 290.361 336.766C290.606 336.534 290.883 336.372 291.159 336.166C292.202 335.35 292.635 334.005 293 332.686C293.099 332.285 293.237 331.896 293.412 331.524C293.737 331.521 294.058 331.6 294.348 331.753C294.638 331.906 294.887 332.13 295.076 332.405C295.524 333.119 295.701 333.98 295.571 334.821V334.821Z" fill="#1B1A17"/>
<path d="M186.218 166.327C187.516 167.335 188.584 168.626 189.347 170.11C190.077 171.591 194.285 183.08 194.04 184.75C195.412 183.318 200.82 183.085 202.207 181.653C202.786 181.053 205.91 178.059 206.379 177.362C206.848 176.665 210.332 175.201 210.713 174.466C212.136 171.823 200.616 161.809 202.092 159.199C202.174 159.079 202.216 158.935 202.212 158.788C202.179 158.665 202.112 158.554 202.019 158.469C201.075 157.469 199.824 156.848 198.687 156.107C197.55 155.367 196.455 154.335 196.147 152.973C195.063 153.49 194.068 154.187 193.201 155.037C191.087 156.914 189.009 158.829 186.969 160.782C186.171 161.549 184.627 162.571 184.257 163.668C183.819 164.846 185.456 165.684 186.218 166.327Z" fill="#A1616A"/>
<path d="M204.867 162.074C203.099 163.304 201.447 164.705 199.933 166.257C198.504 167.721 197.148 169.418 196.804 171.466C196.658 172.271 196.679 173.088 196.559 173.904C196.038 177.443 193.086 180.037 191.782 183.35C191.404 184.373 191.127 185.432 190.953 186.512C190.587 188.559 190.386 190.634 190.353 192.716C190.322 194.732 192.231 196.12 192.929 198.001C193.628 199.882 193.816 201.817 194.171 203.746C194.838 207.388 196.064 210.901 197.3 214.392C199.871 221.753 208.204 242.1 210.775 249.466C218.655 247.418 239.63 242.711 246.608 238.393C248.933 236.955 230.467 220.737 232.955 219.618C233.097 219.595 233.232 219.538 233.349 219.452C233.467 219.366 233.563 219.252 233.631 219.121C233.698 218.989 233.736 218.843 233.74 218.694C233.744 218.545 233.714 218.397 233.653 218.262C231.166 206.988 223.385 197.726 219.854 186.749C218.629 182.939 216.428 179.686 214.759 176.065C213.247 172.785 212.439 169.159 210.629 166.04C210.288 165.398 209.841 164.822 209.31 164.338C208.858 163.979 208.37 163.673 207.855 163.425C206.822 162.906 205.863 162.598 204.867 162.074Z" fill="#6D6D6B"/>
<path d="M186.635 165.046C193.446 165.046 198.968 159.324 198.968 152.265C198.968 145.206 193.446 139.484 186.635 139.484C179.823 139.484 174.301 145.206 174.301 152.265C174.301 159.324 179.823 165.046 186.635 165.046Z" fill="#A1616A"/>
<path d="M199.182 158.269C199.797 157.682 200.569 157.301 201.397 157.177C202.224 157.054 203.069 157.193 203.818 157.577C204.653 158.026 205.383 158.934 205.195 159.885L211.312 159.982C212.286 159.955 213.259 160.047 214.212 160.258C215.17 160.474 216.026 161.03 216.632 161.83C216.705 161.933 216.788 162.057 216.913 162.074C217.015 162.075 217.114 162.041 217.195 161.976C218.136 161.487 219.196 161.299 220.24 161.436C223.547 161.658 226.603 163.371 229.195 165.511C229.662 165.844 230.025 166.312 230.238 166.856C230.451 167.575 230.196 168.478 230.759 168.991C230.759 174.936 232.73 180.491 234.044 186.285C234.279 187.317 235.234 188.23 235.896 189.041C236.714 189.94 237.382 190.973 237.872 192.1C238.988 195.104 237.45 198.639 238.535 201.654C238.994 202.93 239.88 203.978 240.621 205.086C241.597 206.365 242.214 207.899 242.404 209.518C242.451 210.242 242.362 210.971 242.404 211.679C242.474 212.653 242.649 213.616 242.926 214.549C243.371 216.293 243.837 218.035 244.323 219.775C245.116 222.585 246.149 225.617 248.579 227.114C242.712 228.146 236.527 229.157 230.936 227.044C230.157 226.768 229.416 226.384 228.736 225.903C226.717 224.412 225.742 221.861 224.871 219.451C223.901 216.748 222.916 213.998 222.717 211.123C222.719 210.208 222.595 209.298 222.347 208.421C221.779 206.853 220.261 205.908 218.884 205.037C217.33 204.155 215.921 203.02 214.712 201.676C214.113 200.999 213.653 200.202 213.363 199.334C213.072 198.466 212.956 197.545 213.023 196.628C213.127 195.737 213.466 194.877 213.497 193.98C213.529 193.083 213.143 192.056 212.314 191.819C208.042 190.478 206.003 185.236 205.054 180.718C204.645 178.383 204.461 176.012 204.507 173.639L204.449 169.029C203.86 168.473 203.386 167.799 203.056 167.047C202.726 166.296 202.547 165.482 202.53 164.657C202.587 164.175 202.578 163.688 202.504 163.209C202.298 162.623 201.962 162.095 201.524 161.668C200.581 160.665 199.791 159.519 199.182 158.269V158.269Z" fill="#1B1A17"/>
<path d="M186.046 172.882C185.905 174.309 186.218 175.773 185.91 177.173C185.79 177.714 185.581 178.254 185.43 178.757C184.968 180.771 185.168 182.888 185.999 184.772C186.828 186.636 187.822 188.418 188.966 190.095C189.353 190.667 189.672 191.286 189.915 191.938C190.112 192.622 190.235 193.327 190.28 194.04C190.582 196.902 191.066 199.74 191.73 202.535C192.314 204.956 198.947 225.655 200.491 227.573C200.771 227.998 201.196 228.297 201.68 228.411C202.029 228.424 202.376 228.35 202.692 228.195L205.821 226.952C206.087 226.867 206.334 226.728 206.546 226.541C206.839 226.186 206.998 225.733 206.994 225.266C207.219 222.628 200.569 201.784 199.725 199.293C197.169 191.77 193.769 184.518 192.105 176.73C191.641 174.568 191.396 171.239 189.868 169.515C189.237 168.802 189.451 169.105 188.695 169.477C188.313 169.649 187.943 169.85 187.589 170.077C187.147 170.396 186.778 170.814 186.511 171.299C186.244 171.784 186.085 172.325 186.046 172.882Z" fill="#1B1A17"/>
<path d="M195.542 187.155C196.382 191.754 197.247 196.342 198.108 200.941L210.353 197.617C210.452 196.288 209.769 195.056 209.31 193.834C208.194 190.932 208.168 187.701 207.265 184.717C206.582 182.448 205.393 180.362 204.752 178.076C204.382 176.746 204.194 175.374 203.829 174.028C203.437 172.706 202.956 171.415 202.389 170.164C201.702 168.349 200.806 166.627 199.719 165.035C198.155 165.64 196.486 166.343 195.594 167.808C195.137 168.633 194.876 169.559 194.833 170.51C194.619 173.358 195.615 176.222 195.287 179.054C194.948 181.751 195.035 184.487 195.542 187.155V187.155Z" fill="#6D6D6B"/>
<path d="M210.556 248.331C211.244 251.033 210.248 253.876 209.435 256.551C208.21 260.58 207.375 264.726 206.942 268.927C206.889 269.996 206.682 271.05 206.327 272.056C205.941 272.958 205.284 273.72 204.835 274.579C203.604 276.838 203.636 279.595 203.902 282.178C204.079 283.88 204.345 285.577 204.673 287.252C205.075 289.301 205.57 291.441 204.992 293.44C205.962 293.219 206.619 294.521 206.556 295.543C206.494 296.564 206.175 297.704 206.65 298.585C207.849 299.039 207.86 300.747 207.823 302.071C207.843 304.367 208.123 306.652 208.658 308.88C210.473 317.923 212.399 326.941 214.436 335.934C218.843 337.35 223.99 338.825 228.193 336.863C228.975 336.501 229.758 335.923 229.935 335.048C229.981 334.576 229.924 334.099 229.768 333.653L227.776 326.141C227.291 324.326 226.806 322.45 227.062 320.586C227.254 319.197 227.839 317.7 227.181 316.473C226.957 316.052 226.603 315.722 226.342 315.322C225.299 313.739 225.846 311.62 225.93 309.702C225.962 309.271 225.934 308.838 225.846 308.415C225.704 307.922 225.504 307.449 225.252 307.005C223.606 303.693 222.815 299.995 222.957 296.272C223.02 295.797 222.957 295.313 222.775 294.872C222.648 294.69 222.535 294.499 222.436 294.3C222.358 293.953 222.397 293.589 222.545 293.267C221.948 292.797 221.408 292.253 220.939 291.646C221.228 291.46 221.473 291.208 221.654 290.909C221.836 290.61 221.95 290.273 221.987 289.922C222.024 289.571 221.984 289.216 221.869 288.884C221.754 288.552 221.568 288.251 221.325 288.004C221.538 287.959 221.734 287.855 221.893 287.701C222.052 287.548 222.167 287.352 222.224 287.136C222.282 286.919 222.281 286.69 222.221 286.474C222.16 286.258 222.044 286.063 221.883 285.912C221.627 285.728 221.289 285.647 221.106 285.372C220.824 284.972 221.054 284.415 221.283 283.988L222.498 281.713C223.406 280.022 223.609 277.93 224.584 276.309C225.982 273.947 226.895 271.315 227.797 268.71L231.307 258.675L233.669 260.799C234.456 261.422 235.115 262.2 235.609 263.09C235.945 263.969 236.157 264.894 236.24 265.835C237.106 271.283 240.412 276.006 241.637 281.373C241.909 282.567 242.091 283.821 242.754 284.842C242.991 285.156 243.203 285.488 243.39 285.836C243.562 286.368 243.652 286.924 243.656 287.485C243.765 288.582 244.101 289.643 244.641 290.594C245.181 291.545 245.912 292.365 246.785 292.997C247.948 293.824 249.392 294.391 250.023 295.699C250.149 296.104 250.325 296.491 250.545 296.85C251.108 297.553 252.323 297.634 252.563 298.515C252.699 299.007 252.448 299.596 252.714 300.028C252.865 300.228 253.065 300.383 253.293 300.477L256.688 302.233C260.485 304.2 262.425 308.718 265.225 312.009C266.192 313.081 267.049 314.255 267.78 315.511C268.99 317.754 269.548 320.57 271.593 321.996C272.142 322.292 272.642 322.677 273.074 323.137C273.715 324.012 273.48 325.239 273.538 326.341C273.595 327.444 274.409 328.757 275.42 328.422C275.066 329.757 275.066 331.167 275.42 332.502C279.862 332.266 284.098 330.488 287.446 327.455C288.437 326.558 289.391 325.412 289.402 324.05C289.417 323.815 289.366 323.58 289.256 323.374C289.055 323.108 288.791 322.902 288.489 322.775C285.313 320.991 284.359 316.857 282.753 313.501C281.35 310.539 279.274 307.989 277.538 305.238C273.762 299.32 271.186 292.159 265.475 288.252C264.219 287.393 262.758 286.631 262.127 285.21C261.778 284.415 261.736 283.507 261.46 282.686C261.183 281.864 260.521 281.065 259.676 281.065C260.146 279.876 260.052 278.427 260.083 277.141C260.115 276.57 260.052 275.998 259.895 275.45C259.678 274.86 259.397 274.297 259.056 273.774C257.566 271.16 256.821 268.162 256.907 265.127C256.949 263.566 257.215 261.955 256.761 260.464C256.532 259.712 256.13 259.026 255.854 258.302C255.437 256.99 255.217 255.619 255.202 254.238L254.889 249.044C254.842 247.315 254.625 245.595 254.242 243.91C253.199 239.879 252.156 222.99 248.584 221.088C245.012 219.186 238.874 232.183 234.853 232.437C233.074 232.514 231.316 232.865 229.638 233.48C226.962 234.518 224.72 236.452 222.535 238.344L215.14 244.78C213.576 246.115 212.282 247.391 210.556 248.331Z" fill="#1B1A17"/>
<path d="M175.063 138.073C176.69 135.771 179.485 134.55 182.239 134.447C184.992 134.344 187.704 135.242 190.171 136.512C190.899 136.941 191.677 137.271 192.486 137.495C193.79 137.771 195.24 137.403 196.418 138.036C197.983 138.895 198.285 141.084 198.15 142.899C198.014 144.715 197.685 146.731 198.619 148.304C198.95 148.752 199.252 149.223 199.521 149.714C199.923 150.649 199.688 151.73 199.448 152.719C198.838 152.178 198.494 151.362 197.951 150.736C197.409 150.109 196.465 149.687 195.792 150.157C195.12 150.627 195.13 151.481 195.094 152.249C195.057 153.016 194.869 153.935 194.171 154.183C193.879 154.252 193.574 154.229 193.295 154.116C193.016 154.003 192.776 153.807 192.606 153.551C191.412 152.038 191.892 149.622 190.708 148.098C190.035 147.234 188.914 146.812 188.293 145.904C187.803 145.191 187.678 144.283 187.25 143.515C186.823 142.748 185.827 142.186 185.164 142.716C184.938 142.939 184.75 143.201 184.606 143.488C184.193 144.101 183.593 144.552 182.902 144.768C182.211 144.984 181.47 144.952 180.799 144.677C180.286 144.351 179.732 144.102 179.151 143.937C178.771 143.917 178.394 144.008 178.061 144.199C177.729 144.39 177.454 144.674 177.269 145.018C176.894 145.705 176.714 146.488 176.747 147.277C176.747 148.358 176.935 149.509 176.34 150.373C176.114 150.699 175.831 150.978 175.506 151.195C174.635 151.773 173.42 152.162 172.617 151.503C172.345 151.24 172.142 150.909 172.029 150.542C171.916 150.175 171.896 149.784 171.97 149.406C172.127 148.654 172.332 147.914 172.586 147.19C173.045 145.515 172.445 143.629 172.945 142.051C173.47 140.63 174.182 139.291 175.063 138.073V138.073Z" fill="#1B1A17"/>
<path d="M181.67 176.2C181.592 176.594 181.632 177.004 181.785 177.373C181.94 177.625 182.151 177.834 182.4 177.984C184.154 179.116 186.149 179.786 188.21 179.935C188.49 179.94 188.766 180.014 189.013 180.151C189.503 180.486 189.534 181.232 189.352 181.826C189.109 182.387 188.982 182.995 188.982 183.61C189.133 184.739 190.426 185.231 191.516 185.398C193.044 185.598 194.718 185.496 195.928 184.507C196.748 183.732 197.372 182.762 197.748 181.68C200.741 174.552 201.79 166.673 204.82 159.566C205.049 159.102 205.203 158.602 205.273 158.085C205.305 157.827 205.27 157.564 205.171 157.325C205.072 157.085 204.913 156.878 204.71 156.723C204.147 156.361 203.271 156.567 202.89 155.999C202.702 155.713 202.723 155.324 202.556 155.021C202.207 154.378 201.289 154.481 200.663 154.108C200.173 153.838 199.834 153.281 199.286 153.173C199.018 153.157 198.749 153.207 198.502 153.317C198.255 153.428 198.036 153.597 197.863 153.811C196.084 155.529 195.151 157.966 194.16 160.269C192.647 163.798 190.876 167.201 188.862 170.45C189.096 170.072 187.735 167.208 187.203 167.083C186.27 166.889 185.076 168.586 184.57 169.218C182.982 171.213 181.976 173.635 181.67 176.2V176.2Z" fill="#6D6D6B"/>
<path opacity="0.1" d="M200.616 154.61C200.242 154.617 199.873 154.711 199.538 154.885C199.203 155.059 198.911 155.308 198.681 155.616C198.123 156.367 198.014 157.361 197.873 158.318C197.398 161.348 196.355 164.253 194.802 166.867" fill="black"/>
<path opacity="0.1" d="M203.276 156.767C202.759 156.779 202.254 156.93 201.81 157.206C201.367 157.481 201 157.872 200.747 158.339C200.401 159.189 200.187 160.09 200.11 161.009C199.663 163.046 198.801 164.961 197.581 166.624" fill="black"/>
<path d="M327.216 262.42V255.708C327.215 250.767 325.319 246.028 321.947 242.535C318.575 239.042 314.003 237.079 309.235 237.079H53.4435C48.6755 237.079 44.1026 239.042 40.7306 242.535C37.3586 246.028 35.4635 250.767 35.4622 255.708V268.084L327.216 262.42Z" fill="#33323D"/>
<path d="M124.602 229.211C124.602 229.211 123.872 276.152 131.903 291.597C139.934 307.043 143.376 374.234 143.376 374.234C143.376 374.234 227.567 383.259 286.236 363.425C344.905 343.592 469.742 335.48 469.742 335.48L448.705 188.544C448.705 188.544 344.775 181.637 285.652 210.858C226.53 240.079 124.602 229.211 124.602 229.211Z" fill="#FF8303"/>
<path opacity="0.1" d="M288.836 327.719C299.616 326.328 306.021 305.775 303.141 281.814C300.261 257.854 289.187 239.557 278.406 240.949C267.625 242.34 261.221 262.893 264.101 286.854C266.981 310.815 278.055 329.111 288.836 327.719Z" fill="black"/>
<path opacity="0.1" d="M334.121 269.008V455.454C334.121 457.572 333.718 459.669 332.936 461.625C332.154 463.581 331.008 465.359 329.562 466.856C328.117 468.353 326.402 469.54 324.514 470.35C322.626 471.16 320.602 471.576 318.559 471.575H51.0289C46.904 471.574 42.9486 469.875 40.0323 466.852C37.116 463.829 35.4778 459.729 35.4778 455.454V250.212C43.1439 253.162 43.1438 253.162 51.0289 252.914H318.559C322.681 252.914 326.634 254.608 329.552 257.626C332.469 260.643 334.112 264.736 334.121 269.008V269.008Z" fill="black"/>
<path d="M334.121 271.38V457.827C334.119 462.103 332.479 466.203 329.561 469.226C326.643 472.249 322.685 473.948 318.559 473.948H51.0289C46.904 473.946 42.9486 472.247 40.0323 469.224C37.116 466.201 35.4778 462.101 35.4778 457.827V252.579C43.1439 255.524 43.1438 255.524 51.0289 255.281H318.559C322.682 255.281 326.636 256.976 329.554 259.995C332.471 263.013 334.114 267.108 334.121 271.38V271.38Z" fill="#1B1A17"/>
<path opacity="0.1" d="M333.359 340.311V399.937H277.559C269.996 399.831 262.777 396.644 257.465 391.064C252.153 385.485 249.175 377.962 249.175 370.124C249.175 362.286 252.153 354.763 257.465 349.184C262.777 343.604 269.996 340.417 277.559 340.311H333.359Z" fill="black"/>
<path d="M334.121 338.723V398.358H278.32C270.757 398.253 263.539 395.066 258.227 389.486C252.915 383.907 249.936 376.384 249.936 368.546C249.936 360.708 252.915 353.185 258.227 347.606C263.539 342.026 270.757 338.839 278.32 338.733L334.121 338.723Z" fill="#FF8303"/>
<path opacity="0.1" d="M280.995 381.751C287.191 381.751 292.213 376.547 292.213 370.127C292.213 363.707 287.191 358.502 280.995 358.502C274.8 358.502 269.778 363.707 269.778 370.127C269.778 376.547 274.8 381.751 280.995 381.751Z" fill="black"/>
<path d="M281.757 380.173C287.952 380.173 292.974 374.969 292.974 368.549C292.974 362.129 287.952 356.924 281.757 356.924C275.561 356.924 270.539 362.129 270.539 368.549C270.539 374.969 275.561 380.173 281.757 380.173Z" fill="#C4C4C4"/>
<path d="M430.979 338.209C431.422 343.186 427.787 348.018 428.846 352.892C429.076 353.935 429.508 354.919 429.665 355.973C430.103 358.87 428.439 361.61 426.849 364.031L413.185 384.805C412.638 385.718 411.983 386.557 411.235 387.301C408.627 389.712 404.706 389.463 401.274 390.182C398.862 390.689 396.585 391.733 394.599 393.241C394.516 393.314 394.463 393.418 394.452 393.53C394.44 393.643 394.47 393.756 394.537 393.846C395.104 394.646 395.855 395.287 396.722 395.709C397.589 396.13 398.545 396.321 399.501 396.262C399.861 396.753 399.501 397.472 398.98 397.823C398.244 398.364 397.238 398.494 397.092 399.78C397.04 400.229 397.128 400.683 397.342 401.077C397.893 401.951 398.749 402.569 399.731 402.801C404.461 404.298 409.571 401.666 413.112 398.083C416.653 394.5 419.193 389.977 422.666 386.329C424.591 384.313 426.776 382.583 428.757 380.627C432.71 376.725 435.782 371.98 438.749 367.23C439.641 365.798 440.538 364.328 440.914 362.669C441.289 361.01 441.112 359.334 441.534 357.729C442.087 355.622 443.573 353.946 444.809 352.179C447.234 348.72 448.851 344.489 448.533 340.23C448.215 335.972 445.664 331.762 441.785 330.314C440.582 329.813 439.256 329.73 438.004 330.076C436.413 330.584 435.24 331.946 434.155 333.248L431.547 336.355C430.897 337.037 430.383 337.845 430.035 338.733C429.868 339.179 429.828 339.666 429.921 340.134C430.013 340.603 430.234 341.034 430.557 341.376" fill="#FBBEBE"/>
<path opacity="0.05" d="M430.979 338.209C431.422 343.186 427.787 348.018 428.846 352.892C429.076 353.935 429.508 354.919 429.665 355.973C430.103 358.87 428.439 361.61 426.849 364.031L413.185 384.805C412.638 385.718 411.983 386.557 411.235 387.301C408.627 389.712 404.706 389.463 401.274 390.182C398.862 390.689 396.585 391.733 394.599 393.241C394.516 393.314 394.463 393.418 394.452 393.53C394.44 393.643 394.47 393.756 394.537 393.846C395.104 394.646 395.855 395.287 396.722 395.709C397.589 396.13 398.545 396.321 399.501 396.262C399.861 396.753 399.501 397.472 398.98 397.823C398.244 398.364 397.238 398.494 397.092 399.78C397.04 400.229 397.128 400.683 397.342 401.077C397.893 401.951 398.749 402.569 399.731 402.801C404.461 404.298 409.571 401.666 413.112 398.083C416.653 394.5 419.193 389.977 422.666 386.329C424.591 384.313 426.776 382.583 428.757 380.627C432.71 376.725 435.782 371.98 438.749 367.23C439.641 365.798 440.538 364.328 440.914 362.669C441.289 361.01 441.112 359.334 441.534 357.729C442.087 355.622 443.573 353.946 444.809 352.179C447.234 348.72 448.851 344.489 448.533 340.23C448.215 335.972 445.664 331.762 441.785 330.314C440.582 329.813 439.256 329.73 438.004 330.076C436.413 330.584 435.24 331.946 434.155 333.248L431.547 336.355C430.897 337.037 430.383 337.845 430.035 338.733C429.868 339.179 429.828 339.666 429.921 340.134C430.013 340.603 430.234 341.034 430.557 341.376" fill="black"/>
<path d="M441.32 466.344C438.337 468.23 434.619 468.344 431.151 467.906C430.593 467.836 429.931 467.792 429.586 468.241C429.065 468.889 429.68 469.862 430.317 470.365C432.362 471.956 434.765 472.981 437.299 473.343C439.562 473.675 441.846 473.832 444.131 473.813C450.389 473.926 456.647 474.034 462.806 473.105C463.171 473.076 463.526 472.969 463.849 472.791C464.246 472.502 464.522 472.068 464.621 471.575C465.043 469.911 464.23 468.127 462.999 466.971C461.768 465.814 460.188 465.171 458.645 464.55L453.221 462.361C451.948 461.848 449.909 460.486 448.527 460.594C445.93 460.788 443.474 465.036 441.32 466.344Z" fill="#1B1A17"/>
<path opacity="0.05" d="M441.32 466.344C438.337 468.23 434.619 468.344 431.151 467.906C430.593 467.836 429.931 467.792 429.586 468.241C429.065 468.889 429.68 469.862 430.317 470.365C432.362 471.956 434.765 472.981 437.299 473.343C439.562 473.675 441.846 473.832 444.131 473.813C450.389 473.926 456.647 474.034 462.806 473.105C463.171 473.076 463.526 472.969 463.849 472.791C464.246 472.502 464.522 472.068 464.621 471.575C465.043 469.911 464.23 468.127 462.999 466.971C461.768 465.814 460.188 465.171 458.645 464.55L453.221 462.361C451.948 461.848 449.909 460.486 448.527 460.594C445.93 460.788 443.474 465.036 441.32 466.344Z" fill="black"/>
<path d="M445.122 391.733C442.864 394.846 440.528 398.44 441.086 402.293C441.388 404.368 442.509 406.2 443.333 408.119C444.449 410.723 445.034 413.523 445.607 416.311C446.452 420.386 447.302 424.472 447.818 428.612C448.408 433.286 445.638 446.813 445.383 451.52C445.32 452.655 445.19 453.882 444.429 454.698C444.131 455.022 443.735 455.282 443.599 455.703C443.52 456.109 443.585 456.531 443.782 456.892C445.054 459.864 447.657 462.08 450.561 463.345C453.466 464.609 460.47 466.793 463.635 466.906C464.053 466.954 464.475 466.896 464.866 466.739C465.287 466.472 465.619 466.078 465.815 465.609C468.084 461.113 465.904 445.127 465.935 440.052C465.967 435.821 466.931 431.616 466.754 427.39C466.608 423.996 465.711 420.678 465.414 417.295C464.892 411.75 465.873 406.178 466.858 400.699C467.609 396.494 468.365 392.289 469.33 388.139C469.92 385.604 470.603 383.048 471.938 380.849C472.981 379.103 474.446 377.644 475.661 375.985C479.034 371.403 480.532 365.63 479.833 359.913C479.76 359.372 472.011 361.95 471.328 362.258C468.54 363.481 465.975 365.19 463.745 367.311C461.951 369.084 460.538 371.451 458.968 373.434C456.746 376.241 454.553 379.067 452.387 381.913C449.915 385.167 447.493 388.44 445.122 391.733Z" fill="#1B1A17"/>
<path opacity="0.05" d="M445.122 391.544C442.864 394.657 440.528 398.256 441.086 402.104C441.388 404.184 442.509 406.016 443.333 407.935C444.449 410.534 445.034 413.339 445.607 416.122C446.452 420.202 447.302 424.288 447.818 428.422C448.408 433.102 445.638 446.624 445.383 451.331C445.32 452.466 445.19 453.698 444.429 454.514C444.131 454.833 443.735 455.092 443.599 455.514C443.519 455.92 443.584 456.342 443.782 456.703C445.054 459.681 447.657 461.891 450.561 463.188C453.466 464.485 460.47 465.614 463.635 465.723C464.053 465.77 464.475 465.713 464.866 465.555C465.288 465.292 465.62 464.899 465.815 464.431C468.084 459.935 465.904 444.976 465.935 439.896C465.967 435.659 466.931 431.46 466.754 427.228C466.608 423.834 465.711 420.516 465.414 417.138C464.892 411.588 465.873 406.016 466.858 400.536C467.609 396.337 468.366 392.133 469.33 387.977C469.92 385.442 470.603 382.886 471.938 380.687C472.981 378.941 474.446 377.482 475.661 375.823C479.035 371.241 480.534 365.468 479.833 359.75C479.76 359.21 472.011 361.788 471.328 362.096C468.541 363.323 465.977 365.034 463.745 367.154C461.951 368.921 460.538 371.289 458.968 373.272C456.746 376.079 454.553 378.907 452.387 381.757C449.915 384.985 447.493 388.247 445.122 391.544Z" fill="black"/>
<path d="M419.996 323.175C426.986 323.175 432.653 317.302 432.653 310.058C432.653 302.815 426.986 296.942 419.996 296.942C413.006 296.942 407.339 302.815 407.339 310.058C407.339 317.302 413.006 323.175 419.996 323.175Z" fill="#FBBEBE"/>
<path d="M431.396 309.507C432.566 311.44 434.099 313.109 435.904 314.415C437.709 315.72 439.75 316.635 441.904 317.106L440.95 320.699C439.302 326.871 437.451 333.399 432.851 337.68C433.373 335.588 432.705 333.356 431.568 331.54C430.431 329.724 428.836 328.298 427.271 326.887L419.986 320.348C419.775 320.171 419.599 319.954 419.464 319.71C419.284 319.249 419.284 318.734 419.464 318.273C420.392 315.279 423.042 313.409 425.201 311.388C426.284 310.343 427.251 309.175 428.085 307.907C429.54 305.757 430.442 307.918 431.396 309.507Z" fill="#FBBEBE"/>
<path d="M403.324 296.872L403.037 294.408C405.034 294.948 406.933 293.186 408.21 291.365C409.488 289.544 410.672 287.398 412.617 286.636C414.979 285.718 417.483 287.177 419.741 288.409C422.269 289.863 425.043 290.798 427.913 291.165C428.37 291.181 428.824 291.257 429.263 291.392C430.734 291.932 431.433 293.846 431.646 295.58C431.86 297.315 431.803 299.158 432.528 300.704C433.049 301.876 434.019 302.746 434.614 303.903C436.178 307.005 434.666 311.247 436.298 314.29L432.241 310.437C431.871 310.085 431.349 309.718 430.937 310.015C430.614 310.253 430.588 310.766 430.457 311.177C430.066 312.377 428.617 312.733 427.568 312.258C426.52 311.782 425.754 310.75 424.961 309.81C423.167 307.616 421.029 305.686 418.526 304.751C417.428 304.326 416.256 304.148 415.088 304.228C413.919 304.308 412.78 304.645 411.746 305.216C409.853 306.324 408.466 308.907 406.145 308.999C402.964 309.123 401.639 302.984 400.169 300.558C400.707 300.138 401.085 299.536 401.238 298.856C401.391 298.176 401.307 297.462 401.003 296.84C401.217 296.748 403.277 296.494 403.324 296.872Z" fill="#1B1A17"/>
<path d="M246.774 220.191C245.757 221.128 244.817 222.151 243.963 223.25C243.104 224.363 242.647 225.753 242.67 227.179C242.675 227.592 242.802 227.994 243.035 228.33C243.154 228.49 243.319 228.609 243.506 228.668C243.693 228.727 243.893 228.724 244.078 228.659C244.288 228.549 244.467 228.385 244.6 228.184C245.151 227.498 245.736 226.841 246.352 226.217C246.576 225.984 246.873 225.741 247.176 225.828C247.311 225.878 247.433 225.961 247.53 226.071C247.881 226.385 248.137 226.798 248.266 227.26C248.448 228.087 247.984 228.913 247.457 229.562C246.931 230.211 246.31 230.832 246.096 231.648C246.015 231.864 246.015 232.103 246.096 232.318C246.197 232.474 246.338 232.598 246.503 232.675C247.25 233.101 248.078 233.352 248.929 233.41C249.779 233.468 250.632 233.331 251.426 233.01C252.469 232.572 253.397 231.821 254.472 231.432C254.937 231.3 255.388 231.119 255.817 230.891C256.124 230.679 256.388 230.407 256.593 230.088C256.798 229.77 256.94 229.413 257.011 229.038C257.147 228.288 257.173 227.521 257.09 226.763C256.96 223.827 256.353 220.935 255.296 218.208C255.234 218.032 255.13 217.875 254.993 217.754C254.836 217.655 254.655 217.604 254.472 217.608C253.137 217.462 250.946 216.754 249.658 217.267C249.208 217.523 248.819 217.882 248.521 218.316C248.281 218.591 246.774 219.829 246.774 220.191Z" fill="#A1616A"/>
<path d="M246.352 218.97C246.352 217.651 244.787 214.468 247.275 214.257C247.275 212.847 245.351 211.971 245.71 210.474C245.825 209.977 246.232 209.572 246.279 209.064C246.435 207.621 243.922 206.837 244.339 205.454C244.495 204.913 245.048 204.6 245.168 204.065C245.45 202.816 243.296 202.26 243.254 200.979C243.254 200.547 243.489 200.141 243.468 199.709C243.468 199.168 243.014 198.758 242.764 198.288C242.112 197.082 242.43 195.218 241.241 194.596C242.029 194.667 242.284 193.456 241.961 192.716C241.638 191.975 240.975 191.332 240.97 190.511C241.009 190.213 241.009 189.911 240.97 189.614C240.751 188.825 239.505 188.76 239.296 187.992C239.269 187.698 239.26 187.402 239.27 187.106C239.187 186.495 238.582 186.106 238.013 185.933C237.423 185.829 236.854 185.619 236.334 185.312C235.969 185.026 235.546 184.55 235.155 184.772C235.009 184.863 234.936 185.036 234.827 185.166C234.357 185.733 233.46 185.485 232.871 185.069C231.129 183.842 230.264 181.642 229.893 179.497C229.523 177.351 229.534 175.136 229.069 173.012C228.928 172.35 228.74 171.7 228.506 171.066C228.308 170.526 227.672 169.677 227.63 169.132C227.536 167.889 230.019 168.737 230.962 168.861C231.879 168.954 232.785 169.135 233.669 169.402C234.613 169.771 235.537 170.192 236.438 170.661C240.203 172.385 244.751 172.596 247.776 175.492C248.772 176.444 249.611 177.692 250.905 178.124C251.498 178.242 252.083 178.399 252.657 178.594C254.091 179.292 254.315 181.264 255.098 182.691C255.343 183.068 255.558 183.465 255.739 183.88C255.89 184.369 255.96 184.88 255.948 185.393L256.057 189.138C256.234 195.412 256.412 201.703 255.765 207.94C255.556 209.999 255.244 212.117 255.833 214.095C255.989 214.635 256.208 215.143 256.354 215.689C256.483 216.329 256.55 216.981 256.553 217.635L256.636 220.061C256.665 220.25 256.624 220.443 256.521 220.602C256.434 220.675 256.332 220.727 256.223 220.754C256.114 220.781 256 220.783 255.89 220.758C252.631 220.456 249.335 218.553 246.258 219.705" fill="#1B1A17"/>
<path d="M395.095 405.416C416.396 405.416 433.665 402.83 433.665 399.639C433.665 396.449 416.396 393.862 395.095 393.862C373.793 393.862 356.524 396.449 356.524 399.639C356.524 402.83 373.793 405.416 395.095 405.416Z" fill="#504F60"/>
<path d="M428.278 399.92C427.6 396.91 427.177 394.267 427.177 394.267C427.177 394.267 427.334 390.992 425.915 388.534V387.712V381.659C426.319 380.56 426.813 379.499 427.391 378.487C428.434 376.585 427.391 369.613 427.391 369.613C427.391 369.613 423.496 359.783 424.439 353.546C425.383 347.31 416.44 325.855 416.44 325.855C416.495 323.786 416.776 321.73 417.279 319.727C417.375 319.305 417.413 318.873 417.394 318.44C417.394 318.386 417.394 318.338 417.394 318.284C417.394 318.23 417.394 318.316 417.394 318.332C417.258 314.22 414.119 306.513 414.119 306.513L414.541 291.824C414.541 291.824 416.544 283.178 413.279 271.531C412.137 267.473 411.407 264.225 410.943 261.717C410.891 261.436 410.839 261.177 410.797 260.901C417.519 259.82 422.656 258.956 422.656 258.956C422.656 258.956 418.755 242.046 416.121 239.084C413.488 236.123 411.381 226.822 411.381 226.822C411.381 226.822 410.009 214.884 412.226 211.393C414.442 207.902 414.755 201.881 414.755 201.881C414.755 201.881 419.808 198.098 420.445 196.385C421.081 194.672 422.129 190.889 422.129 188.884C422.129 186.879 421.498 185.101 421.707 184.02C421.915 182.939 420.231 178.946 421.076 177.043C421.294 176.459 421.407 175.838 421.41 175.211C421.412 175.193 421.412 175.175 421.41 175.157C421.41 175.157 421.41 175.157 421.41 175.157C421.417 173.493 421.269 171.831 420.966 170.196C419.504 168.917 417.798 167.972 415.96 167.424L415.85 166.97L415.563 165.781C415.403 165.671 415.238 165.57 415.068 165.478V165.046L415.021 163.327L415.814 159.469C417.378 152.757 408.727 151.757 408.727 151.757C408.202 150.727 407.329 149.935 406.276 149.53C404.539 148.898 405.989 159.626 406.797 160.339C407.407 160.879 409.295 164.219 410.208 165.873L410.354 166.143C410.211 166.276 410.078 166.421 409.957 166.575L410.286 168.905L410.338 169.261C409.765 169.999 409.299 170.82 408.956 171.699C408.956 171.699 410.521 173.493 410.223 175.482C409.926 177.47 410.708 179.994 410.745 180.129C410.651 180.016 409.54 178.773 408.429 179.075C407.319 179.378 404.216 180.345 404.216 180.345C404.216 180.345 401.9 180.767 402.13 181.297C402.359 181.826 400.565 184.15 400.565 184.15L394.338 178.032C394.276 177.849 394.208 177.665 394.156 177.492C393.902 176.61 393.727 175.705 393.634 174.79C394.313 174.623 394.979 174.404 395.627 174.136C396.281 173.903 396.871 173.51 397.347 172.99C397.978 172.217 398.098 171.169 398.354 170.207C398.844 168.326 399.918 166.656 400.664 164.868C401.927 161.845 402.334 158.512 401.838 155.259C401.742 154.256 401.415 153.292 400.883 152.449C399.866 151 398.02 150.411 396.68 149.255C395.34 148.098 394.474 146.331 392.909 145.472C391.496 144.688 389.78 144.78 388.185 145.05C385.068 145.583 382.074 146.712 379.356 148.379C378.448 148.92 377.447 149.584 376.404 149.384C375.507 149.217 374.839 148.477 374.276 147.763C374.283 147.734 374.291 147.705 374.302 147.677C374.277 147.65 374.254 147.621 374.235 147.59C373.575 149.108 373.244 150.757 373.265 152.422C373.265 152.681 373.265 152.962 373.296 153.194V153.465C373.296 153.54 373.296 153.616 373.296 153.686C373.296 153.801 373.28 153.916 373.249 154.027C373.118 154.357 372.918 154.654 372.665 154.897C372.473 155.122 372.299 155.362 372.143 155.616C372.143 155.529 372.195 155.443 372.227 155.351C371.829 155.953 371.605 156.659 371.58 157.388C371.551 157.919 371.719 158.441 372.049 158.847C372.362 159.161 372.702 159.444 373.066 159.69C372.942 160.404 372.88 161.127 372.879 161.852C372.89 164.001 373.437 166.111 374.466 167.977C375.494 169.843 376.97 171.402 378.751 172.504C378.824 172.682 378.892 172.866 378.959 173.044C379.757 175.206 380.357 177.746 380.091 180.07C380.091 180.237 380.044 180.41 380.018 180.578C379.992 180.745 379.862 180.756 379.794 180.848C379.794 180.848 369.504 180.956 367.085 178.686C364.665 176.417 360.973 184.236 360.973 184.236C360.973 184.236 357.286 184.977 356.545 184.236C355.805 183.496 351.492 184.134 351.492 184.134C349.725 182.505 347.426 181.636 345.062 181.702C343.63 180.574 342.049 179.664 340.368 179V179L340.253 178.957C339.512 178.676 338.719 178.573 337.933 178.654C337.933 178.654 332.874 174.33 331.398 171.996C329.923 169.661 322.898 161.041 322.867 161.004V160.587L322.788 159.334C322.58 159.368 322.369 159.386 322.157 159.388C322.121 159.263 322.069 159.118 322.017 158.95C321.612 157.727 321.113 156.54 320.525 155.399C320.525 155.399 320.525 153.816 320.968 153.416C321.412 153.016 320.786 147.207 320.786 147.207C320.786 147.207 316.228 136.166 312.145 144.407C312.145 144.407 304.426 149.741 310.903 155.956C310.903 155.956 313.511 157.253 313.855 158.28C314.095 158.945 314.971 160.809 315.56 162.063L315.826 162.603L315.753 162.668L315.847 163.706L315.889 164.106C314.669 164.824 313.839 165.538 314.043 166.073C314.402 166.988 314.649 167.947 314.778 168.926C314.778 168.926 323.738 180.556 324.895 185.523C324.895 185.523 348.921 200.32 356.822 201.373L355.424 208.75C355.22 210.752 355.116 212.763 355.111 214.776C355.215 216.359 354.162 223.547 354.162 223.547C354.162 223.547 352.79 234.118 351.633 235.599C350.475 237.079 350.684 243.418 350.684 243.418C350.41 246.453 349.887 249.458 349.119 252.4C347.961 256.416 348.801 261.388 348.801 261.388C348.801 261.388 344.801 270.899 354.386 264.452C354.386 264.452 359.08 264.149 364.514 263.955C364.514 264.138 364.514 264.328 364.514 264.495C364.514 265.219 364.514 266.003 364.477 266.824C364.404 272.272 364.373 279.795 364.613 285.458C365.035 295.499 367.987 315.371 367.987 315.371V325.374C367.796 326.312 367.702 327.269 367.705 328.227C367.643 331.747 368.547 335.213 370.313 338.22L371.053 344.878C371.053 344.878 372.785 349.266 372.816 351.904C372.809 352.116 372.785 352.328 372.743 352.536C372.676 352.872 372.648 353.215 372.66 353.557C372.56 356.584 374.318 363.825 374.318 363.825C374.318 363.825 374.422 371.116 375.476 371.543C376.378 371.905 374.271 375.742 373.645 376.844C373.628 376.777 373.616 376.708 373.609 376.639L373.478 376.855C373.261 377.445 373.15 378.072 373.15 378.703C373.09 379.201 373.169 379.706 373.375 380.16C373.582 380.613 373.909 380.996 374.318 381.265C376.321 382.535 377.395 383.589 375.695 384.01C375.069 384.111 374.45 384.246 373.838 384.416C373.838 384.334 373.776 384.248 373.75 384.172C373.51 384.269 373.31 384.449 373.183 384.682C373.057 384.914 373.012 385.185 373.056 385.448C373.072 386.305 373.285 387.146 373.677 387.901C375.361 391.814 376.529 393.306 376.529 393.306L377.337 393.214C377.218 393.534 377.06 393.837 376.868 394.116C376.56 394.569 376.153 394.94 375.679 395.197C375.237 395.471 374.745 395.646 374.235 395.71C373.663 395.73 373.103 395.873 372.589 396.132C372.075 396.391 371.619 396.759 371.252 397.213C370.209 398.623 369.541 400.542 371.617 402.228L379.152 404.93C379.152 404.93 392.117 406.676 391.428 403.66C390.74 400.644 390.323 398.007 390.323 398.007C390.378 396.166 390.021 394.337 389.28 392.662C389.144 392.389 388.991 392.126 388.821 391.873L389.28 391.825C389.28 391.825 390.229 385.161 391.491 383.897C391.783 383.605 391.851 383.356 391.783 383.205C391.913 382.843 391.58 382.632 391.157 382.508L391.063 382.773C390.65 382.679 390.229 382.63 389.807 382.627C389.807 382.627 389.384 379.141 390.756 377.871C390.866 377.726 390.947 377.559 390.993 377.381C391.039 377.202 391.048 377.016 391.022 376.833C391.032 376.355 390.983 375.877 390.876 375.412C390.862 375.442 390.846 375.471 390.829 375.498C390.14 372.332 387.804 367.3 387.804 367.3C387.804 367.3 387.7 364.133 388.545 362.863C389.389 361.593 388.435 345.635 388.435 345.635C388.435 345.635 388.753 337.923 387.804 334.329C386.855 330.735 388.962 326.504 388.962 326.504C388.962 326.504 388.962 326.422 388.962 326.277V326.222L388.842 325.007C388.839 325.032 388.839 325.057 388.842 325.082C388.628 323.039 388.226 319.337 387.929 317.63C387.507 315.198 388.039 303.579 388.039 303.579L389.932 298.607L393.306 307.172L396.889 318.586C396.889 318.586 398.662 320.997 398.703 323.45C398.703 323.569 398.703 323.688 398.703 323.807C398.674 324.06 398.66 324.314 398.662 324.569C398.598 326.011 398.98 327.436 399.752 328.638C399.752 328.638 400.701 334.042 402.177 335.399C403.652 336.755 403.652 339.414 403.652 339.414C403.652 339.414 405.441 347.24 406.26 348.602C406.969 349.758 407.006 352.925 407 353.914C407 354.092 407 354.195 407 354.195C407 354.195 407.251 356.994 407.24 359.34C407.24 359.632 407.24 359.913 407.24 360.177C407.243 360.158 407.243 360.138 407.24 360.118C407.24 360.759 407.166 361.397 407.021 362.02L406.99 362.128C406.99 361.993 406.99 361.864 407.027 361.734C406.66 363.327 406.485 364.96 406.505 366.598C406.458 369.408 406.87 372.737 408.513 374.704C411.36 378.087 413.149 377.666 413.149 377.666C413.149 377.666 411.783 381.892 410.093 382.74C410.029 382.771 409.969 382.811 409.916 382.859C409.916 382.773 409.884 382.692 409.874 382.611C409.686 382.821 409.542 383.071 409.452 383.342C409.362 383.614 409.328 383.902 409.352 384.189C409.232 386.048 410.364 389.052 411.438 390.452C411.837 390.857 412.326 391.154 412.862 391.317C412.777 391.379 412.688 391.435 412.596 391.484C412.409 391.591 412.215 391.687 412.017 391.771C411.743 391.891 411.453 391.97 411.157 392.003C410.585 392.019 410.023 392.161 409.509 392.42C408.994 392.679 408.539 393.049 408.174 393.505C407.131 394.911 406.463 396.829 408.539 398.515L416.075 401.217C416.075 401.217 428.956 402.93 428.278 399.92Z" fill="url(#paint0_linear)"/>
<path d="M378.782 404.914L371.481 402.212C369.468 400.526 370.109 398.607 371.126 397.197C371.476 396.747 371.915 396.38 372.414 396.121C372.912 395.862 373.458 395.716 374.015 395.694C374.51 395.629 374.985 395.454 375.408 395.181C375.871 394.92 376.267 394.55 376.565 394.1C377.098 393.224 377.385 392.212 377.395 391.176C377.395 391.176 385.405 388.744 387.595 391.176C387.986 391.616 388.313 392.113 388.565 392.652C389.293 394.33 389.649 396.157 389.608 397.996C389.608 397.996 390.015 400.634 390.677 403.649C391.34 406.665 378.782 404.914 378.782 404.914Z" fill="#1B1A17"/>
<path d="M414.474 401.185L407.172 398.483C405.159 396.797 405.801 394.878 406.818 393.473C407.165 393.021 407.603 392.653 408.101 392.394C408.599 392.135 409.145 391.99 409.702 391.971C409.99 391.94 410.272 391.862 410.536 391.738C410.729 391.654 410.917 391.558 411.099 391.452C413.138 390.29 413.086 387.437 413.086 387.437C413.086 387.437 421.091 385.005 423.287 387.437C423.581 387.766 423.838 388.128 424.054 388.517C425.425 390.976 425.274 394.257 425.274 394.257C425.274 394.257 425.681 396.899 426.317 399.909C426.953 402.92 414.474 401.185 414.474 401.185Z" fill="#1B1A17"/>
<path opacity="0.1" d="M387.6 391.171C387.991 391.611 388.318 392.108 388.57 392.646L376.576 394.089C377.109 393.213 377.396 392.201 377.405 391.165C377.405 391.165 385.41 388.739 387.6 391.171Z" fill="black"/>
<path opacity="0.1" d="M424.064 388.528V390.857C422.197 394.04 413.17 393.343 410.547 391.749C410.739 391.665 410.927 391.569 411.11 391.463C413.149 390.301 413.097 387.447 413.097 387.447C413.097 387.447 421.102 385.015 423.297 387.447C423.591 387.777 423.848 388.139 424.064 388.528V388.528Z" fill="black"/>
<path d="M425.488 378.487C424.929 379.502 424.453 380.563 424.064 381.659V390.009C422.02 393.495 411.418 392.333 409.983 390.43C408.549 388.528 407.053 383.578 408.664 382.719C410.275 381.859 411.621 377.644 411.621 377.644C411.621 377.644 409.884 378.066 407.131 374.682C404.377 371.299 405.196 363.798 405.707 362.004C406.218 360.21 405.707 354.184 405.707 354.184C405.707 354.184 405.811 349.953 404.998 348.58C404.184 347.207 402.448 339.393 402.448 339.393C402.448 339.393 402.448 336.75 401.019 335.377C399.59 334.005 398.672 328.611 398.672 328.611C397.837 327.263 397.477 325.657 397.655 324.066C397.958 321.424 395.919 318.57 395.919 318.57L392.451 307.151L389.186 298.591L387.35 303.557C387.35 303.557 386.829 315.182 387.251 317.608C387.674 320.035 388.294 326.487 388.294 326.487C388.294 326.487 386.255 330.713 387.173 334.307C388.091 337.901 387.757 345.624 387.757 345.624C387.757 345.624 388.675 361.577 387.856 362.847C387.037 364.117 387.142 367.289 387.142 367.289C387.142 367.289 391.314 376.585 389.999 377.855C388.685 379.125 389.082 382.611 389.082 382.611C389.082 382.611 391.934 382.61 390.714 383.88C389.494 385.15 388.571 391.809 388.571 391.809L376.237 393.306C376.237 393.306 375.111 391.83 373.478 387.901C371.846 383.972 373.781 384.416 375.423 383.989C377.066 383.562 376.028 382.513 374.088 381.243C372.148 379.973 373.275 377.12 373.275 377.12C373.275 377.12 376.232 371.942 375.21 371.521C374.188 371.099 374.088 363.804 374.088 363.804C374.088 363.804 372.049 355.157 372.56 352.811C373.072 350.466 370.928 344.889 370.928 344.889L370.214 338.231C368.032 334.453 367.235 329.986 367.971 325.65V315.382C367.971 315.382 365.113 295.516 364.707 285.474C364.446 279.043 364.519 270.267 364.602 264.792C364.654 261.723 364.707 259.685 364.707 259.685L408.763 254.93C408.763 254.93 408.721 257.037 409.561 261.712C410.015 264.219 410.719 267.467 411.824 271.526C414.985 283.151 413.05 291.814 413.05 291.814L412.638 306.508C412.638 306.508 416.513 316.333 415.699 319.716C415.207 321.725 414.931 323.783 414.875 325.855C414.875 325.855 423.542 347.31 422.625 353.546C421.707 359.783 425.477 369.613 425.477 369.613C425.477 369.613 426.51 376.585 425.488 378.487Z" fill="#1B1A17"/>
<path opacity="0.05" d="M400.299 323.428L413.712 321.575C413.712 321.575 406.114 329.611 400.299 323.428Z" fill="black"/>
<path opacity="0.1" d="M411.772 307.994C411.772 307.994 412.231 312.912 409.326 314.76C409.326 314.76 414.525 313.917 411.772 307.994Z" fill="black"/>
<path opacity="0.1" d="M410.948 292.354C410.948 292.354 399.736 301.92 395.658 301.125C391.58 300.331 410.948 292.354 410.948 292.354Z" fill="black"/>
<path opacity="0.1" d="M383.673 327.914C383.673 327.914 375.157 329.919 374.902 333.464C374.646 337.009 383.673 327.914 383.673 327.914Z" fill="black"/>
<path opacity="0.05" d="M385.546 371.991C385.546 371.991 373.515 374.315 376.931 375.898C380.346 377.482 385.958 378.752 385.958 378.752C385.958 378.752 389.843 378.963 385.546 371.991Z" fill="black"/>
<g opacity="0.05">
<path opacity="0.05" d="M374.5 378.417C374.198 378.221 373.942 377.957 373.751 377.644C373.561 377.332 373.441 376.979 373.4 376.612L373.275 376.833C373.275 376.833 372.154 379.687 374.094 380.951C374.313 381.097 374.527 381.243 374.72 381.384C375.079 381.313 375.465 381.259 375.836 381.162C377.478 380.741 376.44 379.687 374.5 378.417Z" fill="black"/>
<path opacity="0.05" d="M389.999 377.568C390.333 377.255 390.323 376.444 390.119 375.407C389.598 376.223 389.446 377.498 389.436 378.465C389.563 378.13 389.754 377.824 389.999 377.568V377.568Z" fill="black"/>
<path opacity="0.05" d="M388.148 324.99C387.705 326.24 387.431 327.548 387.334 328.876C387.567 327.959 387.879 327.065 388.268 326.206L388.148 324.99Z" fill="black"/>
<path opacity="0.05" d="M415.704 319.446C415.784 319.066 415.821 318.678 415.814 318.289C415.663 319.078 415.558 319.808 415.48 320.451C415.548 320.121 415.621 319.808 415.704 319.446Z" fill="black"/>
<path opacity="0.05" d="M387.861 362.566C388.028 362.307 388.122 361.431 388.164 360.215C387.786 361.156 387.586 362.163 387.574 363.182C387.646 362.966 387.742 362.759 387.861 362.566V362.566Z" fill="black"/>
<path opacity="0.05" d="M390.364 382.497C389.732 384.617 389.263 386.785 388.962 388.982L376.628 390.457C376.628 390.457 375.502 388.982 373.869 385.053C373.738 384.75 373.621 384.439 373.52 384.124C372.779 384.475 372.477 385.269 373.457 387.588C375.09 391.5 376.221 392.992 376.221 392.992L388.555 391.511C388.555 391.511 389.473 384.853 390.693 383.583C391.319 382.973 390.933 382.654 390.364 382.497Z" fill="black"/>
<path opacity="0.05" d="M374.094 363.517C374.094 363.517 374.193 370.808 375.215 371.229C375.736 370.024 376.075 368.878 375.616 368.689C374.573 368.268 374.495 360.972 374.495 360.972C374.495 360.972 372.456 352.325 372.967 349.98C373.478 347.634 371.335 342.057 371.335 342.057L370.62 335.399C368.438 331.621 367.642 327.154 368.378 322.818V312.55C368.378 312.55 365.52 292.684 365.113 282.643C364.853 276.212 364.926 267.435 365.009 261.96C365.009 260.972 365.04 260.096 365.056 259.356L364.707 259.393C364.707 259.393 364.649 261.425 364.602 264.5C364.519 269.975 364.441 278.752 364.707 285.177C365.113 295.218 367.966 315.09 367.966 315.09V325.358C367.234 329.693 368.032 334.157 370.214 337.933L370.923 344.592C370.923 344.592 373.066 350.19 372.555 352.52C372.044 354.849 374.094 363.517 374.094 363.517Z" fill="black"/>
<path opacity="0.05" d="M410.401 387.609C409.399 386.106 408.731 384.392 408.445 382.589C407.188 383.767 408.633 388.339 410.009 390.155C411.433 392.057 422.04 393.219 424.09 389.728V387.718C421.31 390.544 411.746 389.409 410.401 387.609Z" fill="black"/>
<path opacity="0.05" d="M425.9 375.666C425.34 376.681 424.862 377.742 424.471 378.838V380.335C424.705 379.795 425.034 379.071 425.514 378.217C425.836 377.385 425.989 376.492 425.962 375.596C425.962 375.596 425.915 375.644 425.9 375.666Z" fill="black"/>
<path opacity="0.05" d="M411.026 377.336C411.414 376.522 411.75 375.682 412.033 374.823C412.033 374.823 410.296 375.244 407.543 371.861C405.54 369.402 405.425 364.755 405.712 361.718C405.191 363.517 404.382 371.018 407.136 374.401C408.935 376.612 410.296 377.195 411.026 377.336Z" fill="black"/>
<path opacity="0.05" d="M405.707 353.898C405.887 355.98 405.955 358.071 405.91 360.161C405.961 359.831 406.031 359.505 406.119 359.183C406.64 357.383 406.119 351.363 406.119 351.363C406.119 351.363 406.223 347.132 405.405 345.759C404.586 344.386 402.88 336.561 402.88 336.561C402.88 336.561 402.88 333.918 401.452 332.545C400.023 331.173 399.105 325.779 399.105 325.779C398.262 324.434 397.893 322.829 398.062 321.234C398.369 318.592 396.33 315.738 396.33 315.738L392.862 304.324L389.598 295.764L387.757 300.736C387.757 300.736 387.757 301.363 387.694 302.357L389.186 298.32L392.45 306.864L395.918 318.278C395.918 318.278 397.957 321.132 397.65 323.774C397.481 325.369 397.85 326.974 398.693 328.319C398.693 328.319 399.611 333.724 401.04 335.085C402.468 336.447 402.463 339.101 402.463 339.101C402.463 339.101 404.2 346.921 405.013 348.288C405.827 349.655 405.707 353.898 405.707 353.898Z" fill="black"/>
</g>
<path d="M414.27 159.453L413.504 163.311L413.551 165.03L413.582 166.294L409.326 166.748L408.852 165.835C407.97 164.181 406.14 160.82 405.551 160.301C404.763 159.62 403.36 148.887 405.029 149.525C406.056 149.936 406.9 150.728 407.397 151.746C407.397 151.746 415.777 152.74 414.27 159.453Z" fill="#FFCDD3"/>
<path opacity="0.1" d="M413.582 166.294L409.326 166.748L408.852 165.835C409.424 165.16 410.204 164.711 411.06 164.565C411.916 164.419 412.794 164.585 413.545 165.035L413.582 166.294Z" fill="black"/>
<path d="M414.656 168.386L409.045 169.731L408.925 168.867L408.606 166.538C408.606 166.538 410.828 163.468 414.041 165.77L414.322 166.954L414.656 168.386Z" fill="#6D6D6B"/>
<path d="M323.758 159.874L317.766 163.203L317.245 162.036C316.676 160.798 315.826 158.934 315.592 158.253C315.237 157.226 312.739 155.929 312.739 155.929C306.481 149.72 313.938 144.38 313.938 144.38C317.891 136.139 322.282 147.18 322.282 147.18C322.282 147.18 322.898 153 322.465 153.389C322.032 153.778 322.032 155.372 322.032 155.372C322.603 156.515 323.086 157.702 323.477 158.923C323.659 159.512 323.758 159.874 323.758 159.874Z" fill="#FFCDD3"/>
<path opacity="0.1" d="M323.758 159.874L317.766 163.203L317.245 162.036C318.089 161.301 321.088 158.793 322.074 158.896C322.544 158.957 323.019 158.969 323.492 158.934C323.659 159.512 323.758 159.874 323.758 159.874Z" fill="black"/>
<path d="M324.369 161.749L317.636 165.186L317.5 163.69L317.406 162.652C317.406 162.652 321.307 159.188 322.46 159.323C323.043 159.41 323.635 159.41 324.217 159.323L324.296 160.577L324.369 161.749Z" fill="#6D6D6B"/>
<path d="M397.952 185.085C397.952 185.085 368.602 188.517 374.088 186.668C377.906 185.377 379.423 182.885 379.741 180.075C380.002 177.735 379.418 175.211 378.652 173.05C377.962 171.132 377.088 169.291 376.044 167.554C376.044 167.554 398.469 154.767 393.989 166.392C393.298 168.15 392.869 170.007 392.716 171.899C392.582 173.779 392.778 175.668 393.295 177.476C394.141 180.408 395.753 183.042 397.952 185.085V185.085Z" fill="#FFCDD3"/>
<path opacity="0.1" d="M393.973 166.375C393.282 168.134 392.853 169.991 392.701 171.882C390.589 173.725 388.273 173.601 385.295 173.601C383.011 173.601 380.477 174.174 378.651 173.033C377.962 171.116 377.088 169.275 376.044 167.537C376.044 167.537 398.463 154.751 393.973 166.375Z" fill="black"/>
<path d="M384.899 174.412C391.601 174.412 397.034 168.781 397.034 161.836C397.034 154.89 391.601 149.26 384.899 149.26C378.197 149.26 372.764 154.89 372.764 161.836C372.764 168.781 378.197 174.412 384.899 174.412Z" fill="#FFCDD3"/>
<path opacity="0.1" d="M397.952 185.085C397.952 185.085 368.602 188.517 374.088 186.668C377.906 185.377 379.423 182.885 379.741 180.075C381.202 178.454 384.138 177.249 385.999 176.622C387.721 176.022 389.579 175.99 391.319 176.53C392.003 176.744 392.654 177.057 393.254 177.46C394.109 180.403 395.735 183.043 397.952 185.085V185.085Z" fill="black"/>
<path opacity="0.1" d="M414.656 168.386L409.045 169.731L408.925 168.867C409.526 168.012 410.366 167.369 411.332 167.027C412.298 166.684 413.342 166.659 414.322 166.954L414.656 168.386Z" fill="black"/>
<path opacity="0.1" d="M324.368 161.749L317.636 165.186L317.5 163.69C319.681 162.474 321.947 161.432 324.28 160.571L324.368 161.749Z" fill="black"/>
<path opacity="0.1" d="M409.561 261.723C398.187 263.603 382.02 266.003 379.455 265.192C377.322 264.522 370.521 264.592 364.602 264.803C364.654 261.734 364.707 259.696 364.707 259.696L408.763 254.94C408.763 254.94 408.721 257.048 409.561 261.723Z" fill="black"/>
<path d="M420.898 258.956C420.898 258.956 383.47 265.614 379.455 264.36C375.439 263.106 354.814 264.463 354.814 264.463C345.531 270.91 349.406 261.398 349.406 261.398C349.406 261.398 348.592 256.432 349.713 252.417C350.467 249.469 350.981 246.461 351.252 243.424C351.252 243.424 351.049 237.079 352.17 235.599C353.291 234.118 354.621 223.552 354.621 223.552C354.621 223.552 355.638 216.365 355.539 214.781C355.44 213.198 355.841 208.756 355.841 208.756L357.171 201.357C349.521 200.303 326.267 185.506 326.267 185.506C325.146 180.54 316.478 168.915 316.478 168.915C316.352 167.938 316.112 166.98 315.764 166.062C315.154 164.37 324.332 160.987 324.332 160.987C324.332 160.987 331.164 169.634 332.593 171.98C334.021 174.325 338.913 178.638 338.913 178.638C339.673 178.557 340.441 178.66 341.156 178.94L341.276 178.978C342.915 179.645 344.452 180.555 345.839 181.68C348.138 181.624 350.369 182.496 352.06 184.112C352.06 184.112 356.232 183.474 356.957 184.215C357.682 184.955 361.239 184.215 361.239 184.215C361.239 184.215 364.806 176.395 367.152 178.665C369.499 180.934 379.455 180.826 379.455 180.826C380.779 179 384.007 177.692 386.026 177.043C387.747 176.446 389.605 176.414 391.345 176.952C392.096 177.184 392.801 177.549 393.431 178.032L399.486 184.161C399.486 184.161 401.217 181.832 401.014 181.307C400.81 180.783 403.053 180.356 403.053 180.356C403.053 180.356 406.01 179.405 407.131 179.086C408.252 178.767 409.279 180.027 409.373 180.14C409.337 180.005 408.57 177.438 408.852 175.492C409.133 173.547 407.626 171.709 407.626 171.709C411.193 162.619 419.25 170.229 419.25 170.229C419.25 170.229 420.168 175.195 419.355 177.097C418.541 179 420.168 183.015 419.965 184.074C419.762 185.134 420.377 186.928 420.377 188.938C420.377 190.949 419.334 194.748 418.745 196.439C418.155 198.131 413.238 201.935 413.238 201.935C413.238 201.935 412.93 207.961 410.786 211.447C408.643 214.933 409.989 226.854 409.989 226.854C409.989 226.854 412.028 236.155 414.578 239.117C417.128 242.078 420.898 258.956 420.898 258.956Z" fill="#1B1A17"/>
<path opacity="0.1" d="M366.339 189.414C366.339 189.414 365.218 185.928 364.196 185.631C363.181 185.244 362.193 184.785 361.239 184.258L361.896 182.956C361.896 182.956 365.724 184.037 366.339 185.209C366.954 186.382 366.339 189.414 366.339 189.414Z" fill="black"/>
<path opacity="0.1" d="M345.839 181.702C345.635 182.783 336.556 183.707 336.556 183.707L341.145 178.94L341.26 178.984C342.906 179.654 344.448 180.57 345.839 181.702V181.702Z" fill="black"/>
<path d="M319.576 168.04C320.025 168.04 320.39 167.662 320.39 167.197C320.39 166.731 320.025 166.354 319.576 166.354C319.127 166.354 318.762 166.731 318.762 167.197C318.762 167.662 319.127 168.04 319.576 168.04Z" fill="#1B1A17"/>
<path d="M320.619 169.731C321.068 169.731 321.433 169.354 321.433 168.888C321.433 168.423 321.068 168.045 320.619 168.045C320.17 168.045 319.805 168.423 319.805 168.888C319.805 169.354 320.17 169.731 320.619 169.731Z" fill="#1B1A17"/>
<path d="M321.641 171.293C322.09 171.293 322.455 170.916 322.455 170.45C322.455 169.985 322.09 169.607 321.641 169.607C321.192 169.607 320.828 169.985 320.828 170.45C320.828 170.916 321.192 171.293 321.641 171.293Z" fill="#1B1A17"/>
<path d="M322.71 172.979C323.159 172.979 323.524 172.602 323.524 172.136C323.524 171.671 323.159 171.293 322.71 171.293C322.261 171.293 321.896 171.671 321.896 172.136C321.896 172.602 322.261 172.979 322.71 172.979Z" fill="#1B1A17"/>
<path d="M418.844 172.731C419.21 172.731 419.506 172.424 419.506 172.044C419.506 171.665 419.21 171.358 418.844 171.358C418.478 171.358 418.181 171.665 418.181 172.044C418.181 172.424 418.478 172.731 418.844 172.731Z" fill="#1B1A17"/>
<path d="M418.948 174.293C419.314 174.293 419.61 173.985 419.61 173.606C419.61 173.227 419.314 172.92 418.948 172.92C418.582 172.92 418.286 173.227 418.286 173.606C418.286 173.985 418.582 174.293 418.948 174.293Z" fill="#1B1A17"/>
<path d="M419.037 175.849C419.402 175.849 419.699 175.542 419.699 175.163C419.699 174.784 419.402 174.476 419.037 174.476C418.671 174.476 418.374 174.784 418.374 175.163C418.374 175.542 418.671 175.849 419.037 175.849Z" fill="#1B1A17"/>
<path opacity="0.1" d="M366.375 218.056C366.276 217.932 389.269 248.018 407.115 230.632C407.131 230.637 378.933 234.599 366.375 218.056Z" fill="black"/>
<path opacity="0.1" d="M353.181 233.696C353.181 233.696 366.939 234.085 368.378 238.187V242.457C367.986 242.682 367.546 242.8 367.098 242.8C366.65 242.8 366.209 242.682 365.817 242.457C364.43 241.678 356.112 237.301 353.181 239.409V233.696Z" fill="black"/>
<path d="M353.437 233.696C353.437 233.696 366.594 234.069 367.971 237.982V242.046C367.596 242.262 367.175 242.375 366.746 242.375C366.317 242.375 365.895 242.262 365.52 242.046C364.196 241.311 356.243 237.133 353.437 239.144V233.696Z" fill="#1B1A17"/>
<path opacity="0.1" d="M360.691 202.741C362.097 206.112 363.888 209.296 366.026 212.225C368.352 215.462 371.17 218.286 374.37 220.586C374.37 220.586 360.921 204.697 360.691 202.741Z" fill="black"/>
<path opacity="0.1" d="M356.19 186.177C356.19 186.177 358.485 196.445 364.399 199.93L356.19 186.177Z" fill="black"/>
<path opacity="0.1" d="M352.67 187.214C352.613 187.025 350.631 195.321 360.295 199.93C360.295 199.93 356.19 198.488 352.67 187.214Z" fill="black"/>
<path opacity="0.1" d="M412.742 180.329C412.591 180.329 417.509 183.572 418.849 185.085C418.849 185.085 415.647 180.113 412.742 180.329Z" fill="black"/>
<path d="M381.619 173.233C381.621 173.508 381.677 173.779 381.785 174.029C381.894 174.28 382.051 174.504 382.247 174.689C382.443 174.873 382.673 175.013 382.924 175.1C383.176 175.188 383.441 175.22 383.705 175.195C387.402 175.433 391.256 175.6 394.656 174.114C395.294 173.878 395.867 173.485 396.325 172.969C396.93 172.196 397.05 171.147 397.295 170.185C397.775 168.305 398.797 166.635 399.532 164.846C400.777 161.824 401.193 158.505 400.737 155.253C400.641 154.257 400.323 153.297 399.809 152.449C398.828 150.995 397.04 150.406 395.741 149.249C394.443 148.093 393.608 146.326 392.091 145.466C390.724 144.677 389.05 144.775 387.512 145.045C384.486 145.577 381.586 146.706 378.97 148.368C378.088 148.909 377.124 149.574 376.112 149.374C375.225 149.201 374.579 148.428 374.026 147.704C373.315 149.433 373.016 151.315 373.155 153.189C373.193 153.464 373.185 153.744 373.129 154.016C373.001 154.345 372.808 154.641 372.56 154.886C371.648 155.967 371.079 157.723 371.982 158.836C372.373 159.317 372.978 159.582 373.358 160.074C374.042 160.955 373.812 162.236 373.796 163.36C373.759 163.752 373.855 164.146 374.068 164.473C374.265 164.664 374.506 164.798 374.769 164.864C375.031 164.929 375.305 164.923 375.564 164.846C376.081 164.685 376.623 164.631 377.16 164.689C377.726 164.88 378.214 165.26 378.547 165.77C380.232 168.045 380.899 170.52 381.619 173.233Z" fill="#1B1A17"/>
<g opacity="0.1">
<path opacity="0.1" d="M396.758 172.012C396.3 172.529 395.727 172.922 395.089 173.158C391.668 174.633 387.82 174.466 384.138 174.239C383.743 174.243 383.352 174.152 382.996 173.974C382.433 173.633 382.219 172.92 382.047 172.271C381.327 169.569 380.665 167.089 378.954 164.835C378.624 164.315 378.136 163.925 377.567 163.727C377.03 163.675 376.489 163.728 375.971 163.884C375.712 163.962 375.438 163.968 375.176 163.904C374.914 163.84 374.672 163.706 374.474 163.517C374.262 163.19 374.166 162.796 374.203 162.403C374.203 161.268 374.448 159.998 373.765 159.118C373.384 158.626 372.78 158.361 372.388 157.875C372.133 157.516 371.977 157.092 371.935 156.649C371.894 156.205 371.97 155.759 372.154 155.356C371.502 156.437 371.225 157.793 371.982 158.723C372.373 159.204 372.978 159.469 373.358 159.961C374.042 160.847 373.812 162.122 373.796 163.246C373.756 163.638 373.851 164.032 374.062 164.36C374.26 164.551 374.503 164.686 374.766 164.752C375.029 164.817 375.304 164.81 375.564 164.733C376.081 164.571 376.623 164.518 377.16 164.576C377.726 164.766 378.214 165.147 378.547 165.657C380.253 167.91 380.92 170.385 381.64 173.098C381.724 173.766 382.046 174.377 382.542 174.811C382.9 174.99 383.293 175.079 383.689 175.071C387.387 175.309 391.241 175.482 394.641 173.99C395.279 173.756 395.852 173.362 396.31 172.844C396.54 172.54 396.716 172.196 396.831 171.828C396.836 171.899 396.8 171.958 396.758 172.012Z" fill="black"/>
<path opacity="0.1" d="M373.155 153.686C373.319 153.502 373.445 153.285 373.525 153.049C373.572 152.775 373.572 152.495 373.525 152.222C373.423 150.681 373.617 149.134 374.093 147.671L374.026 147.59C373.312 149.317 373.013 151.197 373.155 153.07C373.17 153.275 373.17 153.481 373.155 153.686V153.686Z" fill="black"/>
</g>
<path opacity="0.1" d="M379.455 180.853C379.455 180.853 394.615 182.939 395.976 180.578Z" fill="black"/>
<path opacity="0.1" d="M408.925 174.352C408.925 174.352 417.352 174.352 419.204 177.638Z" fill="black"/>
<path d="M456.074 466.263C453.574 468.579 450.326 469.836 446.973 469.787C446.118 469.787 444.934 469.954 444.929 470.84C444.95 471.1 445.036 471.35 445.18 471.565C446.238 473.393 447.909 474.753 449.873 475.385C451.698 475.958 453.649 475.861 455.552 475.758L461.106 475.461C462.149 475.402 463.192 475.348 464.235 475.212C465.278 475.077 466.415 474.856 467.505 474.672C470.183 474.277 472.891 474.147 475.593 474.283C476.313 474.31 477.158 474.283 477.586 473.743C478.013 473.202 477.794 472.17 477.633 471.359C477.299 469.689 477.633 467.938 477.325 466.263C476.803 463.323 474.347 461.07 471.656 460.005C469.153 459.021 464.72 457.892 462.353 459.535C459.855 461.259 458.327 464.139 456.074 466.263Z" fill="#1B1A17"/>
<path d="M461.591 367.765C462.081 370.181 464.339 372.029 464.402 374.493C464.459 376.471 463.098 378.13 462.118 379.822C461.194 381.574 460.414 383.403 459.787 385.291C457.941 390.206 455.65 394.929 452.945 399.396C451.641 401.558 450.181 403.865 450.478 406.378C450.686 407.554 451.086 408.683 451.662 409.718L455.573 417.771C456.43 419.378 457.1 421.085 457.57 422.856C457.909 424.385 457.941 425.969 458.139 427.525C458.754 432.465 460.991 437.437 459.667 442.225C459.552 442.636 459.145 443.133 458.827 442.846C460.12 445.348 461.158 447.867 461.059 450.704C461.007 452.19 460.569 453.741 461.096 455.125C461.32 455.703 461.711 456.243 461.706 456.865C461.706 457.276 461.523 457.659 461.482 458.059C461.372 459.2 462.384 460.151 463.432 460.513C464.48 460.875 465.622 460.848 466.681 461.178C468.715 461.81 470.17 463.626 471.896 464.885C473.667 466.149 475.754 466.853 477.904 466.911C478.21 466.945 478.52 466.881 478.79 466.728C478.943 466.589 479.066 466.418 479.151 466.226C479.235 466.034 479.28 465.825 479.28 465.614C479.375 464.605 479.228 463.587 478.854 462.65C478.479 461.714 477.888 460.887 477.132 460.243C476.801 460.028 476.526 459.731 476.334 459.378C476.237 459.066 476.212 458.734 476.261 458.411C476.576 453.981 476.499 449.531 476.031 445.116C475.821 443.717 475.752 442.299 475.828 440.885C475.938 439.706 476.282 438.539 476.157 437.366C476.031 436.194 475.453 435.124 475.114 433.994C474.509 431.984 474.676 429.822 474.592 427.72C474.488 424.067 473.679 420.478 472.876 416.911C472.558 415.512 472.209 414.047 471.254 413.009C470.441 412.129 469.127 411.285 469.434 410.113C469.605 409.68 469.859 409.289 470.18 408.962C470.558 408.471 470.835 407.905 470.995 407.299C471.154 406.693 471.193 406.06 471.108 405.438C471.452 405.529 471.814 405.493 472.135 405.337C472.455 405.182 472.714 404.915 472.866 404.584C479.218 401.477 484.339 395.262 486.623 388.371C486.758 387.86 486.965 387.372 487.239 386.923C487.828 386.069 488.85 385.702 489.757 385.232C492.605 383.745 494.571 380.962 496.375 378.238C497.418 376.66 498.461 375.028 498.931 373.169C499.177 371.967 499.294 370.74 499.28 369.511L499.442 363.161C499.477 362.742 499.438 362.321 499.327 361.918C499.172 361.541 498.947 361.199 498.665 360.912C496.93 359.012 494.652 357.739 492.167 357.281C490.498 356.973 488.793 357.032 487.103 356.886C483.828 356.605 480.595 355.551 477.32 355.805C472.172 356.2 467.588 359.896 465.163 364.62C464.313 366.284 463.416 367.733 461.591 367.765Z" fill="#1B1A17"/>
<path d="M433.013 326.476C433.082 327.457 432.954 328.441 432.637 329.368C432.236 330.254 431.229 330.946 430.348 330.584C430.614 329.962 429.91 329.254 429.253 329.33C428.929 329.407 428.629 329.565 428.378 329.789C428.126 330.013 427.931 330.297 427.808 330.616C427.373 331.524 427.226 332.551 427.391 333.551C427.6 334.794 428.293 335.988 428.111 337.236C427.965 338.274 427.229 339.306 427.62 340.268C427.874 340.708 428.193 341.103 428.564 341.441C429.08 342.099 429.332 342.936 429.269 343.781C429.206 344.625 428.832 345.413 428.225 345.98L438.092 346.186C437.732 347.894 438.473 349.639 439.318 351.158C441.684 355.333 444.951 358.883 448.864 361.53C452.776 364.177 457.227 365.849 461.867 366.414C461.617 366.566 461.401 366.773 461.237 367.022C461.073 367.271 460.965 367.554 460.919 367.851C460.874 368.148 460.893 368.453 460.975 368.741C461.057 369.03 461.199 369.297 461.393 369.521C462.196 370.348 463.557 370.246 464.564 369.711C465.57 369.176 466.358 368.289 467.275 367.603C468.896 366.413 470.872 365.861 472.85 366.046C474.086 366.171 475.286 366.587 476.527 366.652C480.177 366.852 483.306 364.128 486.821 363.015C489.382 362.199 492.287 362.199 494.435 360.539C495.363 359.826 496.125 358.653 495.854 357.497C495.629 356.832 495.274 356.223 494.811 355.708C493.575 354.049 492.845 352.055 491.958 350.169C490.202 346.435 487.783 343.076 484.829 340.268C482.599 338.248 480.236 336.392 477.758 334.713C477.158 334.254 476.519 333.854 475.849 333.518C474.983 333.124 474.024 332.935 473.241 332.437C472.084 331.681 471.416 330.346 470.524 329.27C468.569 326.903 465.565 325.817 463.156 323.958C461.539 322.71 460.11 321.067 458.18 320.467C457.242 320.17 456.246 320.148 455.307 319.856C453.174 319.186 451.62 317.224 449.529 316.43C447.876 315.803 446.05 315.965 444.314 315.744C442.356 315.493 440.486 314.755 438.864 313.593C438.341 313.152 437.755 312.798 437.127 312.544C434.483 311.712 434.27 316.814 433.998 318.581C433.649 321.207 433.013 323.818 433.013 326.476Z" fill="#6D6D6B"/>
<path d="M435.589 343.586C436.032 348.569 432.403 353.395 433.461 358.275C433.686 359.313 434.118 360.302 434.275 361.356C434.718 364.247 433.049 366.987 431.459 369.408L417.795 390.187C417.247 391.099 416.592 391.938 415.845 392.684C413.238 395.089 409.316 394.846 405.884 395.559C403.474 396.072 401.198 397.115 399.209 398.618C399.12 398.69 399.061 398.795 399.045 398.911C399.03 399.027 399.058 399.145 399.126 399.239C399.692 400.039 400.443 400.679 401.309 401.101C402.175 401.523 403.13 401.713 404.085 401.655C404.445 402.141 404.085 402.866 403.59 403.217C402.86 403.757 401.848 403.882 401.702 405.173C401.653 405.622 401.74 406.076 401.952 406.47C402.505 407.341 403.36 407.957 404.341 408.189C409.071 409.691 414.181 407.054 417.722 403.471C421.263 399.888 423.803 395.365 427.276 391.722C429.201 389.701 431.386 387.977 433.368 386.021C437.321 382.113 440.397 377.374 443.359 372.623C444.251 371.191 445.153 369.721 445.524 368.062C445.894 366.403 445.722 364.722 446.144 363.117C446.697 361.015 448.183 359.334 449.419 357.573C451.844 354.114 453.466 349.882 453.143 345.618C452.82 341.354 450.275 337.15 446.395 335.702C445.191 335.206 443.866 335.123 442.614 335.464C441.023 335.972 439.85 337.334 438.765 338.641L436.158 341.744C435.523 342.43 435.025 343.24 434.692 344.127C434.524 344.573 434.484 345.061 434.576 345.531C434.669 346 434.89 346.432 435.214 346.775" fill="#FBBEBE"/>
<path d="M442.515 323.147C440.721 323.256 438.744 323.439 437.477 324.769C436.946 325.379 436.516 326.077 436.204 326.833C434.974 329.433 433.774 332.151 433.686 335.048C433.613 337.361 434.259 339.625 434.598 341.911C434.88 343.813 434.165 345.753 434.03 347.677C436.257 346.969 439.198 346.007 441.216 344.813C442.593 343.997 443.923 343.068 445.425 342.549C447.568 341.808 451.161 343.089 453.2 344.116C453.31 342.635 452.235 340.052 452.35 338.566C452.366 337.94 452.473 337.321 452.668 336.728C452.973 336.102 453.335 335.506 453.748 334.95C454.524 333.643 454.881 332.114 454.768 330.583C454.654 329.052 454.076 327.598 453.117 326.428C451.307 324.32 448.475 323.531 445.774 323.185C444.073 322.981 442.358 322.919 440.648 323.002" fill="#6D6D6B"/>
</g>
<path opacity="0.2" d="M598.191 197.796C598.191 197.796 554.306 211.749 533.611 236.31C512.917 260.871 469.351 272.501 469.351 272.501C469.351 272.501 475.09 296.162 480.399 302.564C485.707 308.965 495.776 342.089 495.776 342.089C495.776 342.089 531.764 332.504 553.479 312.719C575.193 292.933 625.801 267.945 625.801 267.945L598.191 197.796Z" fill="black"/>
<path d="M478.905 272.288C478.905 272.288 483.943 293.178 488.601 298.829C493.258 304.48 502.104 333.718 502.104 333.718C502.104 333.718 533.711 325.259 552.781 307.793C571.852 290.327 616.289 268.276 616.289 268.276L592.043 206.343C592.043 206.343 553.508 218.661 535.335 240.342C517.162 262.024 478.905 272.288 478.905 272.288Z" fill="#FF8303"/>
<path opacity="0.1" d="M478.905 272.288C478.905 272.288 483.943 293.178 488.601 298.829C493.258 304.48 502.104 333.718 502.104 333.718C502.104 333.718 533.711 325.259 552.781 307.793C571.852 290.327 616.289 268.276 616.289 268.276L592.043 206.343C592.043 206.343 553.508 218.661 535.335 240.342C517.162 262.024 478.905 272.288 478.905 272.288Z" fill="black"/>
<path d="M487.663 277.057C487.663 277.057 491.085 294.596 494.885 299.095C498.685 303.595 505.036 328.004 505.036 328.004C505.036 328.004 532.97 318.407 550.401 302.016C567.831 285.626 607.585 263.437 607.585 263.437L589.33 212.125C589.33 212.125 555.176 225.541 538.331 245.481C521.485 265.42 487.663 277.057 487.663 277.057Z" fill="#FF8303"/>
<path opacity="0.1" d="M548.869 294.226C552.628 292.015 552.632 281.969 548.878 271.787C545.124 261.605 539.033 255.143 535.274 257.354C531.515 259.565 531.511 269.611 535.265 279.793C539.02 289.975 545.11 296.437 548.869 294.226Z" fill="black"/>
<path opacity="0.2" d="M492.326 0C492.326 0 448.441 13.9535 427.747 38.5146C407.052 63.0756 363.486 74.7054 363.486 74.7054C363.486 74.7054 369.226 98.3666 374.534 104.768C379.843 111.17 389.911 144.294 389.911 144.294C389.911 144.294 425.899 134.708 447.614 114.923C469.329 95.1374 519.937 70.1492 519.937 70.1492L492.326 0Z" fill="black"/>
<path d="M373.041 74.4922C373.041 74.4922 378.078 95.3821 382.736 101.033C387.394 106.684 396.239 135.923 396.239 135.923C396.239 135.923 427.846 127.464 446.917 109.997C465.987 92.5314 510.424 70.4801 510.424 70.4801L486.178 8.547C486.178 8.547 447.643 20.8647 429.47 42.5465C411.297 64.2282 373.041 74.4922 373.041 74.4922Z" fill="#FF8303"/>
<path opacity="0.1" d="M373.041 74.4922C373.041 74.4922 378.078 95.3821 382.736 101.033C387.394 106.684 396.239 135.923 396.239 135.923C396.239 135.923 427.846 127.464 446.917 109.997C465.987 92.5314 510.424 70.4801 510.424 70.4801L486.178 8.547C486.178 8.547 447.643 20.8647 429.47 42.5465C411.297 64.2282 373.041 74.4922 373.041 74.4922Z" fill="black"/>
<path d="M381.799 79.2609C381.799 79.2609 385.22 96.7999 389.02 101.3C392.82 105.799 399.171 130.209 399.171 130.209C399.171 130.209 427.105 120.611 444.536 104.221C461.966 87.8306 501.72 65.641 501.72 65.641L483.465 14.3288C483.465 14.3288 449.311 27.7451 432.466 47.6848C415.621 67.6244 381.799 79.2609 381.799 79.2609Z" fill="#FF8303"/>
<path opacity="0.1" d="M443.005 96.4303C446.764 94.2196 446.767 84.1734 443.013 73.9915C439.259 63.8096 433.168 57.3477 429.409 59.5584C425.65 61.7691 425.646 71.8153 429.401 81.9972C433.155 92.1791 439.246 98.641 443.005 96.4303Z" fill="black"/>
<path opacity="0.2" d="M128.84 110.247C128.84 110.247 84.9549 124.2 64.2602 148.761C43.5655 173.322 0 184.952 0 184.952C0 184.952 5.73922 208.613 11.0478 215.015C16.3563 221.416 26.4249 254.54 26.4249 254.54C26.4249 254.54 62.4129 244.955 84.1276 225.17C105.842 205.384 156.45 180.396 156.45 180.396L128.84 110.247Z" fill="black"/>
<path d="M9.5542 184.739C9.5542 184.739 14.5921 205.629 19.2497 211.28C23.9074 216.931 32.753 246.169 32.753 246.169C32.753 246.169 64.3596 237.71 83.4302 220.244C102.501 202.778 146.938 180.727 146.938 180.727L122.692 118.794C122.692 118.794 84.1567 131.112 65.9838 152.793C47.8109 174.475 9.5542 184.739 9.5542 184.739Z" fill="#FF8303"/>
<path opacity="0.1" d="M9.5542 184.739C9.5542 184.739 14.5921 205.629 19.2497 211.28C23.9074 216.931 32.753 246.169 32.753 246.169C32.753 246.169 64.3596 237.71 83.4302 220.244C102.501 202.778 146.938 180.727 146.938 180.727L122.692 118.794C122.692 118.794 84.1567 131.112 65.9838 152.793C47.8109 174.475 9.5542 184.739 9.5542 184.739Z" fill="black"/>
<path d="M18.3123 189.508C18.3123 189.508 21.7339 207.047 25.5337 211.546C29.3334 216.046 35.685 240.455 35.685 240.455C35.685 240.455 63.6192 230.858 81.0496 214.468C98.4801 198.077 138.234 175.888 138.234 175.888L119.979 124.576C119.979 124.576 85.8248 137.992 68.9795 157.932C52.1342 177.871 18.3123 189.508 18.3123 189.508Z" fill="#FF8303"/>
<path opacity="0.1" d="M79.5184 206.677C83.2773 204.466 83.2812 194.42 79.5269 184.238C75.7726 174.056 69.6819 167.595 65.9229 169.805C62.164 172.016 62.1601 182.062 65.9144 192.244C69.6687 202.426 75.7594 208.888 79.5184 206.677Z" fill="black"/>
<path opacity="0.2" d="M297.285 24.8596C297.285 24.8596 253.4 38.8131 232.705 63.3741C212.01 87.9352 168.445 99.565 168.445 99.565C168.445 99.565 174.184 123.226 179.493 129.628C184.801 136.029 194.87 169.153 194.87 169.153C194.87 169.153 230.858 159.568 252.572 139.782C274.287 119.997 324.895 95.0087 324.895 95.0087L297.285 24.8596Z" fill="black"/>
<path d="M177.999 99.3518C177.999 99.3518 183.037 120.242 187.695 125.893C192.352 131.544 201.198 160.782 201.198 160.782C201.198 160.782 232.804 152.323 251.875 134.857C270.946 117.391 315.383 95.3397 315.383 95.3397L291.137 33.4066C291.137 33.4066 252.602 45.7243 234.429 67.4061C216.256 89.0878 177.999 99.3518 177.999 99.3518Z" fill="#FF8303"/>
<path opacity="0.1" d="M177.999 99.3518C177.999 99.3518 183.037 120.242 187.695 125.893C192.352 131.544 201.198 160.782 201.198 160.782C201.198 160.782 232.804 152.323 251.875 134.857C270.946 117.391 315.383 95.3397 315.383 95.3397L291.137 33.4066C291.137 33.4066 252.602 45.7243 234.429 67.4061C216.256 89.0878 177.999 99.3518 177.999 99.3518Z" fill="black"/>
<path d="M186.757 104.12C186.757 104.12 190.179 121.659 193.978 126.159C197.778 130.659 204.13 155.068 204.13 155.068C204.13 155.068 232.064 145.47 249.494 129.08C266.925 112.69 306.678 90.5006 306.678 90.5006L288.424 39.1884C288.424 39.1884 254.27 52.6046 237.424 72.5443C220.579 92.484 186.757 104.12 186.757 104.12Z" fill="#FF8303"/>
<path opacity="0.1" d="M247.963 121.29C251.722 119.079 251.726 109.033 247.972 98.8511C244.217 88.6692 238.127 82.2072 234.368 84.4179C230.609 86.6287 230.605 96.6748 234.359 106.857C238.114 117.039 244.204 123.501 247.963 121.29Z" fill="black"/>
<defs>
<linearGradient id="paint0_linear" x1="368.295" y1="405.416" x2="368.295" y2="141.332" gradientUnits="userSpaceOnUse">
<stop stop-color="#808080" stop-opacity="0.25"/>
<stop offset="0.54" stop-color="#808080" stop-opacity="0.12"/>
<stop offset="1" stop-color="#808080" stop-opacity="0.1"/>
</linearGradient>
<clipPath id="clip0">
<rect width="547.357" height="366.727" fill="white" transform="translate(0 110.247)"/>
</clipPath>
</defs>
</svg>
