<svg width="471" height="283" viewBox="0 0 471 283" fill="none" xmlns="http://www.w3.org/2000/svg">
<g clip-path="url(#clip0)">
<path d="M375.214 125.24L376.612 115.189C377.109 111.617 379.168 108.368 382.335 106.157C385.503 103.947 389.52 102.955 393.503 103.401C397.485 103.846 401.108 105.693 403.573 108.534C406.037 111.375 407.143 114.977 406.646 118.549L405.248 128.601C405.181 129.08 404.904 129.516 404.479 129.813C404.053 130.11 403.514 130.243 402.979 130.184L376.98 127.275C376.445 127.215 375.959 126.966 375.628 126.585C375.297 126.203 375.148 125.72 375.214 125.24V125.24Z" fill="#6D6D6B"/>
<path d="M387.668 128.239C393.796 128.239 398.763 123.783 398.763 118.287C398.763 112.791 393.796 108.336 387.668 108.336C381.54 108.336 376.573 112.791 376.573 118.287C376.573 123.783 381.54 128.239 387.668 128.239Z" fill="#FFB8B8"/>
<path d="M372.948 115.595C373.344 112.771 374.973 110.203 377.478 108.455C379.983 106.707 383.159 105.921 386.309 106.27L388.55 106.521C391.699 106.877 394.562 108.338 396.512 110.585C398.461 112.831 399.337 115.68 398.947 118.505L398.919 118.706L394.183 118.176L393.131 113.937L392.244 117.959L389.796 117.685L389.266 115.546L388.818 117.575L372.92 115.796L372.948 115.595Z" fill="#6D6D6B"/>
<path d="M333.401 153.785C333.74 154.382 334.221 154.906 334.81 155.318C335.399 155.73 336.082 156.022 336.81 156.172C337.538 156.322 338.294 156.328 339.025 156.187C339.755 156.047 340.443 155.765 341.039 155.361L351.116 160.655L356.198 155.947L341.849 148.65C341.025 147.797 339.882 147.245 338.634 147.098C337.387 146.951 336.123 147.219 335.082 147.852C334.04 148.485 333.294 149.439 332.984 150.532C332.675 151.626 332.823 152.783 333.401 153.785V153.785Z" fill="#FFB8B8"/>
<path d="M366.43 163.299C358.997 163.299 345.916 160.315 345.192 160.148L344.963 160.096L347.022 150.747L367.001 154.286L377.855 140.578L390.317 139.442L389.969 139.852C389.807 140.043 373.743 159.009 371.243 162.19C370.613 162.993 368.811 163.299 366.43 163.299Z" fill="#1B1A17"/>
<path d="M368.423 198.387L368.126 198.259C368.062 198.232 361.747 195.477 358.476 190.098C355.22 184.745 370.46 162.037 371.526 160.461L371.542 153.249L377.024 139.974L384.016 136.429L378.013 148.992L368.423 198.387Z" fill="#1B1A17"/>
<path d="M361.419 275.897L354.736 275.897L351.557 252.78L361.42 252.78L361.419 275.897Z" fill="#FFB8B8"/>
<path d="M363.123 281.706L341.576 281.706V281.461C341.576 279.467 342.46 277.553 344.033 276.143C345.605 274.732 347.738 273.94 349.963 273.94H349.963L363.123 273.94L363.123 281.706Z" fill="#6D6D6B"/>
<path d="M433.194 270.645L426.844 272.511L415.797 251.431L425.169 248.677L433.194 270.645Z" fill="#FFB8B8"/>
<path d="M436.83 275.69L416.355 281.706L416.27 281.474C415.578 279.579 415.753 277.514 416.758 275.734C417.763 273.954 419.515 272.606 421.628 271.984L421.629 271.984L434.134 268.309L436.83 275.69Z" fill="#6D6D6B"/>
<path d="M420.256 266.865L401.207 238.343L385.126 207.869L370.655 234.788L364.907 269.651L344.747 269.902L344.826 269.619L375.677 159.675L399.839 162.913L398.739 177.217L399.394 178.053C404.852 185.007 410.496 192.197 407.259 199.948L416.435 224.384L436.746 265.073L420.256 266.865Z" fill="#6D6D6B"/>
<path d="M376.781 183.503C373.28 183.503 369.285 179.918 371.358 173.797L371.224 173.71L376.201 153.986C371.857 148.414 377.584 143.816 378.121 143.405L380.855 138.992L392.917 132.131L399.019 177.61L398.929 177.688C394.521 181.47 379.718 183.503 376.781 183.503Z" fill="#FF8303"/>
<path d="M401.483 193.766C401.004 193.772 400.526 193.727 400.058 193.63C399.589 193.525 398.83 192.989 397.656 189.562C392.991 175.939 387.483 134.947 391.485 130.935L391.576 130.843L398.147 131.825C398.693 131.464 401.559 129.669 404.204 129.982C404.749 130.043 405.273 130.204 405.746 130.454C406.218 130.705 406.628 131.039 406.951 131.438L406.996 131.491L409.089 158.2L416.758 189.631L416.574 189.706C416.128 189.888 406.552 193.766 401.483 193.766Z" fill="#1B1A17"/>
<path d="M397.064 183.326C397.811 183.304 398.543 183.135 399.209 182.832C399.876 182.528 400.459 182.097 400.92 181.569C401.38 181.041 401.706 180.429 401.874 179.776C402.042 179.123 402.048 178.445 401.893 177.79L411.511 171.848L408.911 165.725L395.459 174.287C394.249 174.595 393.206 175.29 392.529 176.241C391.852 177.191 391.587 178.332 391.785 179.446C391.983 180.56 392.63 181.571 393.603 182.286C394.576 183.001 395.807 183.371 397.064 183.326V183.326Z" fill="#FFB8B8"/>
<path d="M408.338 176.609L399.77 170.974L411.813 156.245L402.571 141.617L406.706 131.012L406.973 131.469C407.098 131.682 419.44 152.77 421.593 156.149C423.833 159.665 409.115 175.762 408.488 176.445L408.338 176.609Z" fill="#1B1A17"/>
<path d="M215.615 242.904L208.323 240.15L203.32 207.365H136.707L131.285 240.016L124.761 242.941C124.449 243.081 124.199 243.312 124.051 243.595C123.903 243.879 123.866 244.199 123.946 244.503C124.026 244.808 124.219 245.079 124.493 245.274C124.766 245.468 125.105 245.574 125.454 245.574H215.014C215.371 245.574 215.718 245.463 215.995 245.259C216.272 245.056 216.461 244.774 216.532 244.459C216.603 244.145 216.55 243.818 216.383 243.534C216.216 243.251 215.944 243.028 215.615 242.904V242.904Z" fill="#E6E6E6"/>
<path d="M333.992 211.727H6.7671C5.05025 211.723 3.40503 211.109 2.19239 210.019C0.979749 208.929 0.298718 207.452 0.298706 205.912V164.527H340.46V205.912C340.46 207.452 339.779 208.929 338.566 210.019C337.354 211.109 335.708 211.723 333.992 211.727V211.727Z" fill="#CCCCCC"/>
<path d="M340.802 184.087H0V7.00917C0.00239394 5.15084 0.826562 3.36924 2.2917 2.05522C3.75684 0.741205 5.74329 0.00208412 7.81527 0H332.987C335.059 0.00207934 337.045 0.7412 338.51 2.05521C339.975 3.36923 340.8 5.15083 340.802 7.00917V184.087Z" fill="#1B1A17"/>
<path d="M320.447 171.234H20.3548C18.7574 171.233 17.226 170.663 16.0964 169.65C14.9669 168.637 14.3316 167.263 14.3298 165.831V18.2559C14.3316 16.8232 14.9669 15.4497 16.0964 14.4366C17.2259 13.4235 18.7574 12.8536 20.3548 12.852H320.447C322.045 12.8536 323.576 13.4235 324.706 14.4366C325.835 15.4497 326.471 16.8232 326.472 18.2559V165.831C326.47 167.263 325.835 168.637 324.706 169.65C323.576 170.663 322.045 171.233 320.447 171.234V171.234Z" fill="white"/>
<path d="M254.562 245.916H85.9359C85.7632 245.919 85.5941 245.871 85.455 245.779C85.3159 245.687 85.2146 245.556 85.1669 245.407C85.1371 245.306 85.1336 245.2 85.1567 245.097C85.1798 244.994 85.2289 244.898 85.3002 244.815C85.3715 244.732 85.4632 244.664 85.568 244.618C85.6729 244.572 85.7882 244.548 85.905 244.547H254.5C254.682 244.542 254.861 244.591 255.007 244.689C255.154 244.786 255.26 244.925 255.307 245.082C255.332 245.182 255.331 245.286 255.305 245.386C255.279 245.486 255.229 245.579 255.157 245.659C255.086 245.739 254.995 245.804 254.892 245.848C254.789 245.892 254.676 245.915 254.562 245.916Z" fill="#CCCCCC"/>
<path d="M317.243 36.7104H244.788V86.357H317.243V36.7104Z" fill="#F2F2F2"/>
<path d="M313.643 39.1773H248.388V83.8901H313.643V39.1773Z" fill="white"/>
<path d="M282.162 72.3431C282.17 72.3432 282.179 72.343 282.187 72.3426C286.605 72.1354 290.768 70.4269 293.831 67.5647C296.894 64.7025 298.626 60.9015 298.676 56.9345C298.725 52.9676 297.088 49.1327 294.098 46.2096C291.107 43.2866 286.988 41.4948 282.577 41.1988C282.522 41.195 282.467 41.2013 282.416 41.2174C282.364 41.2335 282.317 41.2589 282.276 41.2922C282.236 41.325 282.204 41.3648 282.182 41.4092C282.16 41.4536 282.148 41.5016 282.148 41.5502L281.768 71.9827C281.767 72.0773 281.808 72.1684 281.882 72.2359C281.955 72.3035 282.056 72.342 282.162 72.3431V72.3431Z" fill="#1B1A17"/>
<path d="M268.517 46.2311C268.652 46.2326 268.782 46.2821 268.876 46.3689L280.558 57.0831C280.605 57.1259 280.642 57.1767 280.667 57.2325C280.691 57.2883 280.704 57.3479 280.703 57.408L280.521 71.9701C280.52 72.0326 280.505 72.0943 280.477 72.1514C280.449 72.2085 280.407 72.2597 280.356 72.3017C280.304 72.3443 280.243 72.377 280.177 72.3976C280.111 72.4182 280.041 72.4265 279.971 72.4218C276.723 72.2038 273.607 71.1777 270.974 69.459C268.34 67.7403 266.293 65.3969 265.063 62.6923C263.833 59.9876 263.468 57.0288 264.009 54.1484C264.55 51.2679 265.977 48.58 268.128 46.3865C268.174 46.3393 268.231 46.3011 268.295 46.2744C268.358 46.2477 268.428 46.233 268.498 46.2312C268.504 46.2311 268.511 46.231 268.517 46.2311Z" fill="#E6E6E6"/>
<path d="M280.395 41.0745C280.525 41.0759 280.65 41.1217 280.744 41.2026C280.795 41.2457 280.835 41.2978 280.862 41.3555C280.889 41.4131 280.902 41.4752 280.901 41.5378L280.737 54.6766C280.736 54.7671 280.705 54.8552 280.648 54.9298C280.591 55.0045 280.511 55.0623 280.417 55.096C280.323 55.1297 280.221 55.1377 280.122 55.1191C280.023 55.1005 279.933 55.056 279.862 54.9913L269.669 45.6419C269.621 45.5974 269.583 45.5446 269.558 45.4866C269.533 45.4286 269.521 45.3667 269.524 45.3046C269.527 45.2424 269.543 45.1815 269.573 45.1253C269.603 45.0691 269.645 45.0189 269.697 44.9778C272.661 42.6374 276.419 41.2624 280.363 41.075C280.374 41.0746 280.384 41.0744 280.395 41.0745Z" fill="#FF8303"/>
<path d="M275.144 78.6538C275.137 79.2081 274.947 79.7481 274.598 80.2055C274.249 80.6629 273.756 81.0172 273.182 81.2236C272.609 81.4299 271.98 81.4791 271.375 81.3649C270.77 81.2507 270.217 80.9782 269.785 80.5818C269.353 80.1855 269.061 79.6831 268.948 79.1383C268.834 78.5935 268.903 78.0306 269.146 77.5209C269.388 77.0112 269.794 76.5775 270.312 76.2747C270.83 75.9719 271.436 75.8137 272.054 75.8199C272.882 75.8291 273.673 76.1326 274.252 76.6638C274.831 77.1951 275.152 77.9108 275.144 78.6538Z" fill="#FF8303"/>
<path d="M284.071 78.7435C284.065 79.2978 283.875 79.8378 283.525 80.2952C283.176 80.7527 282.684 81.1069 282.11 81.3133C281.537 81.5197 280.908 81.5689 280.303 81.4546C279.698 81.3404 279.145 81.0679 278.712 80.6716C278.28 80.2753 277.989 79.7729 277.875 79.228C277.761 78.6832 277.83 78.1203 278.073 77.6106C278.316 77.1009 278.722 76.6672 279.24 76.3645C279.758 76.0617 280.364 75.9034 280.982 75.9096C281.81 75.9188 282.601 76.2223 283.18 76.7536C283.759 77.2849 284.08 78.0005 284.071 78.7435V78.7435Z" fill="#1B1A17"/>
<path d="M292.999 78.8333C292.992 79.3876 292.802 79.9276 292.453 80.385C292.104 80.8424 291.612 81.1967 291.038 81.4031C290.464 81.6095 289.835 81.6586 289.231 81.5444C288.626 81.4302 288.072 81.1577 287.64 80.7613C287.208 80.365 286.917 79.8626 286.803 79.3178C286.689 78.773 286.758 78.2101 287.001 77.7004C287.244 77.1907 287.65 76.757 288.168 76.4542C288.685 76.1514 289.292 75.9932 289.91 75.9994C290.738 76.0086 291.528 76.3121 292.108 76.8433C292.687 77.3746 293.008 78.0903 292.999 78.8333Z" fill="#E6E6E6"/>
<path d="M316.481 94.1705H244.025V143.817H316.481V94.1705Z" fill="#F2F2F2"/>
<path d="M312.881 96.6374H247.625V141.35H312.881V96.6374Z" fill="white"/>
<path d="M258.697 111.333C260.193 111.333 261.407 110.245 261.407 108.903C261.407 107.561 260.193 106.473 258.697 106.473C257.201 106.473 255.988 107.561 255.988 108.903C255.988 110.245 257.201 111.333 258.697 111.333Z" fill="#1B1A17"/>
<path d="M302.231 107.012C302.472 107.012 302.711 107.054 302.935 107.137C303.158 107.219 303.361 107.341 303.532 107.494C303.703 107.647 303.838 107.829 303.931 108.029C304.024 108.229 304.071 108.443 304.071 108.66C304.071 108.877 304.024 109.091 303.931 109.291C303.838 109.491 303.703 109.673 303.532 109.826C303.361 109.979 303.158 110.101 302.935 110.183C302.711 110.266 302.472 110.308 302.231 110.308H273.734C273.247 110.308 272.78 110.134 272.435 109.825C272.09 109.516 271.897 109.097 271.897 108.66C271.897 108.223 272.09 107.804 272.435 107.495C272.78 107.186 273.247 107.012 273.734 107.012H302.231ZM302.231 106.608H273.734C273.434 106.608 273.136 106.661 272.858 106.764C272.58 106.867 272.327 107.018 272.115 107.208C271.902 107.399 271.733 107.625 271.618 107.874C271.503 108.123 271.443 108.39 271.443 108.66C271.443 108.93 271.503 109.197 271.618 109.446C271.733 109.695 271.902 109.921 272.115 110.112C272.327 110.302 272.58 110.453 272.858 110.556C273.136 110.659 273.434 110.712 273.734 110.712H302.231C302.531 110.712 302.829 110.659 303.107 110.556C303.385 110.453 303.638 110.302 303.85 110.112C304.063 109.921 304.232 109.695 304.347 109.446C304.462 109.197 304.522 108.93 304.522 108.66C304.522 108.39 304.462 108.123 304.347 107.874C304.232 107.625 304.063 107.399 303.85 107.208C303.638 107.018 303.385 106.867 303.107 106.764C302.829 106.661 302.531 106.608 302.231 106.608V106.608Z" fill="#1B1A17"/>
<path d="M290.987 110.712H269.535C268.928 110.712 268.346 110.496 267.917 110.111C267.488 109.726 267.247 109.204 267.247 108.66C267.247 108.116 267.488 107.594 267.917 107.209C268.346 106.825 268.928 106.608 269.535 106.608H290.987C291.593 106.608 292.175 106.825 292.604 107.209C293.033 107.594 293.274 108.116 293.274 108.66C293.274 109.204 293.033 109.726 292.604 110.111C292.175 110.496 291.593 110.712 290.987 110.712V110.712Z" fill="#FF8303"/>
<path d="M258.697 121.424C260.193 121.424 261.407 120.336 261.407 118.994C261.407 117.652 260.193 116.564 258.697 116.564C257.201 116.564 255.988 117.652 255.988 118.994C255.988 120.336 257.201 121.424 258.697 121.424Z" fill="#1B1A17"/>
<path d="M302.231 117.103C302.472 117.102 302.711 117.145 302.935 117.227C303.158 117.31 303.361 117.431 303.532 117.585C303.703 117.738 303.838 117.919 303.931 118.12C304.024 118.32 304.071 118.534 304.071 118.751C304.071 118.967 304.024 119.182 303.931 119.382C303.838 119.582 303.703 119.764 303.532 119.917C303.361 120.07 303.158 120.192 302.935 120.274C302.711 120.357 302.472 120.399 302.231 120.399H273.734C273.247 120.399 272.78 120.225 272.435 119.916C272.09 119.607 271.897 119.188 271.897 118.751C271.897 118.314 272.09 117.895 272.435 117.586C272.78 117.276 273.247 117.103 273.734 117.103H302.231ZM302.231 116.699H273.734C273.128 116.699 272.546 116.915 272.117 117.3C271.688 117.685 271.447 118.207 271.447 118.751C271.447 119.295 271.688 119.817 272.117 120.202C272.546 120.586 273.128 120.803 273.734 120.803H302.231C302.837 120.803 303.419 120.586 303.848 120.202C304.277 119.817 304.518 119.295 304.518 118.751C304.518 118.207 304.277 117.685 303.848 117.3C303.419 116.915 302.837 116.699 302.231 116.699Z" fill="#1B1A17"/>
<path d="M299.087 120.802H269.535C268.928 120.802 268.346 120.586 267.917 120.202C267.488 119.817 267.247 119.295 267.247 118.751C267.247 118.207 267.488 117.685 267.917 117.3C268.346 116.915 268.928 116.699 269.535 116.699H299.087C299.694 116.699 300.276 116.915 300.705 117.3C301.134 117.685 301.375 118.207 301.375 118.751C301.375 119.295 301.134 119.817 300.705 120.202C300.276 120.586 299.694 120.802 299.087 120.802Z" fill="#FF8303"/>
<path d="M258.697 131.515C260.193 131.515 261.407 130.427 261.407 129.085C261.407 127.743 260.193 126.655 258.697 126.655C257.201 126.655 255.988 127.743 255.988 129.085C255.988 130.427 257.201 131.515 258.697 131.515Z" fill="#1B1A17"/>
<path d="M302.231 127.194C302.472 127.193 302.711 127.236 302.935 127.318C303.158 127.401 303.361 127.522 303.532 127.675C303.703 127.828 303.838 128.01 303.931 128.21C304.024 128.41 304.071 128.625 304.071 128.842C304.071 129.058 304.024 129.273 303.931 129.473C303.838 129.673 303.703 129.855 303.532 130.008C303.361 130.161 303.158 130.282 302.935 130.365C302.711 130.448 302.472 130.49 302.231 130.49H273.734C273.247 130.49 272.78 130.316 272.435 130.007C272.09 129.698 271.897 129.279 271.897 128.842C271.897 128.405 272.09 127.985 272.435 127.676C272.78 127.367 273.247 127.194 273.734 127.194H302.231ZM302.231 126.79H273.734C273.128 126.79 272.546 127.006 272.117 127.391C271.688 127.776 271.447 128.297 271.447 128.842C271.447 129.386 271.688 129.908 272.117 130.292C272.546 130.677 273.128 130.893 273.734 130.893H302.231C302.837 130.893 303.419 130.677 303.848 130.292C304.277 129.908 304.518 129.386 304.518 128.842C304.518 128.297 304.277 127.776 303.848 127.391C303.419 127.006 302.837 126.79 302.231 126.79Z" fill="#1B1A17"/>
<path d="M281.536 130.893H269.535C269.234 130.894 268.936 130.841 268.658 130.738C268.38 130.635 268.128 130.484 267.915 130.293C267.702 130.103 267.534 129.877 267.418 129.627C267.303 129.378 267.244 129.111 267.244 128.842C267.244 128.572 267.303 128.305 267.418 128.056C267.534 127.807 267.702 127.58 267.915 127.39C268.128 127.199 268.38 127.048 268.658 126.945C268.936 126.842 269.234 126.79 269.535 126.79H281.536C282.142 126.791 282.723 127.007 283.151 127.392C283.579 127.777 283.82 128.298 283.82 128.842C283.82 129.385 283.579 129.907 283.151 130.291C282.723 130.676 282.142 130.892 281.536 130.893V130.893Z" fill="#FF8303"/>
<path d="M228.008 45.494H25.5793V138.541H228.008V45.494Z" fill="#F2F2F2"/>
<path d="M221.261 50.1175H32.327V133.918H221.261V50.1175Z" fill="white"/>
<path d="M197.829 121.133H60.0999C59.9856 121.133 59.876 121.093 59.7951 121.02C59.7143 120.948 59.6689 120.849 59.6689 120.747V61.5401C59.6689 61.4376 59.7143 61.3393 59.7951 61.2668C59.876 61.1943 59.9856 61.1536 60.0999 61.1536C60.2142 61.1536 60.3239 61.1943 60.4047 61.2668C60.4855 61.3393 60.5309 61.4376 60.5309 61.5401V120.36H197.829C197.943 120.36 198.053 120.401 198.134 120.473C198.215 120.546 198.26 120.644 198.26 120.747C198.26 120.849 198.215 120.948 198.134 121.02C198.053 121.093 197.943 121.133 197.829 121.133V121.133Z" fill="#1B1A17"/>
<path d="M89.5266 116.881H76.9996C76.6604 116.881 76.3352 116.76 76.0953 116.544C75.8554 116.329 75.7205 116.038 75.7201 115.733V100.246C75.7205 99.9413 75.8554 99.6496 76.0953 99.4345C76.3352 99.2194 76.6604 99.0984 76.9996 99.0981H89.5266C89.8658 99.0984 90.191 99.2194 90.4309 99.4345C90.6708 99.6496 90.8057 99.9413 90.8061 100.246V115.733C90.8057 116.038 90.6708 116.329 90.4309 116.544C90.191 116.76 89.8658 116.881 89.5266 116.881V116.881Z" fill="#FF8303"/>
<path d="M112.371 116.881H99.8442C99.5049 116.881 99.1797 116.76 98.9398 116.544C98.7 116.329 98.565 116.038 98.5646 115.733V85.5553C98.565 85.2511 98.7 84.9594 98.9398 84.7443C99.1797 84.5292 99.5049 84.4082 99.8442 84.4078H112.371C112.71 84.4082 113.036 84.5292 113.275 84.7443C113.515 84.9594 113.65 85.2511 113.651 85.5553V115.733C113.65 116.038 113.515 116.329 113.275 116.544C113.036 116.76 112.71 116.881 112.371 116.881V116.881Z" fill="#FF8303"/>
<path d="M135.216 116.881H122.689C122.349 116.881 122.024 116.76 121.784 116.544C121.545 116.329 121.41 116.038 121.409 115.733V100.246C121.41 99.9413 121.545 99.6496 121.784 99.4345C122.024 99.2194 122.349 99.0984 122.689 99.0981H135.216C135.555 99.0984 135.88 99.2194 136.12 99.4345C136.36 99.6496 136.495 99.9413 136.495 100.246V115.733C136.495 116.038 136.36 116.329 136.12 116.544C135.88 116.76 135.555 116.881 135.216 116.881V116.881Z" fill="#FF8303"/>
<path d="M158.06 116.881H145.533C145.202 116.887 144.881 116.776 144.641 116.57C144.401 116.365 144.262 116.083 144.254 115.785V79.7046C144.262 79.4073 144.401 79.1251 144.641 78.9197C144.881 78.7144 145.202 78.6027 145.533 78.6091H158.06C158.392 78.6027 158.713 78.7144 158.952 78.9197C159.192 79.1251 159.332 79.4073 159.34 79.7046V115.785C159.332 116.083 159.192 116.365 158.952 116.57C158.713 116.776 158.392 116.887 158.06 116.881V116.881Z" fill="#FF8303"/>
<path d="M180.905 116.881H168.378C168.039 116.881 167.713 116.76 167.473 116.544C167.234 116.329 167.099 116.038 167.098 115.733V69.3188C167.099 69.0146 167.234 68.7229 167.473 68.5078C167.713 68.2927 168.039 68.1717 168.378 68.1713H180.905C181.244 68.1717 181.569 68.2927 181.809 68.5078C182.049 68.7229 182.184 69.0146 182.184 69.3188V115.733C182.184 116.038 182.049 116.329 181.809 116.544C181.569 116.76 181.244 116.881 180.905 116.881V116.881Z" fill="#FF8303"/>
<path d="M83.2631 94.4591C84.6914 94.4591 85.8493 93.4206 85.8493 92.1396C85.8493 90.8585 84.6914 89.8201 83.2631 89.8201C81.8348 89.8201 80.6769 90.8585 80.6769 92.1396C80.6769 93.4206 81.8348 94.4591 83.2631 94.4591Z" fill="#1B1A17"/>
<path d="M106.108 79.3822C107.536 79.3822 108.694 78.3438 108.694 77.0627C108.694 75.7817 107.536 74.7432 106.108 74.7432C104.679 74.7432 103.521 75.7817 103.521 77.0627C103.521 78.3438 104.679 79.3822 106.108 79.3822Z" fill="#1B1A17"/>
<path d="M128.952 94.4591C130.381 94.4591 131.538 93.4206 131.538 92.1396C131.538 90.8585 130.381 89.8201 128.952 89.8201C127.524 89.8201 126.366 90.8585 126.366 92.1396C126.366 93.4206 127.524 94.4591 128.952 94.4591Z" fill="#1B1A17"/>
<path d="M151.797 72.0371C153.225 72.0371 154.383 70.9987 154.383 69.7176C154.383 68.4366 153.225 67.3981 151.797 67.3981C150.368 67.3981 149.211 68.4366 149.211 69.7176C149.211 70.9987 150.368 72.0371 151.797 72.0371Z" fill="#1B1A17"/>
<path d="M174.641 63.5323C176.07 63.5323 177.227 62.4938 177.227 61.2128C177.227 59.9318 176.07 58.8933 174.641 58.8933C173.213 58.8933 172.055 59.9318 172.055 61.2128C172.055 62.4938 173.213 63.5323 174.641 63.5323Z" fill="#1B1A17"/>
<path d="M129.007 92.6591L106.108 77.2761L83.5215 92.4489L83.0048 91.8304L106.108 76.3098L128.898 91.6198L151.545 69.3921L151.635 69.359L174.48 61.1039L174.802 61.821L152.049 70.0433L129.007 92.6591Z" fill="#1B1A17"/>
<path d="M470.5 283H280.111C279.978 283 279.851 282.953 279.758 282.869C279.664 282.785 279.611 282.671 279.611 282.552C279.611 282.433 279.664 282.319 279.758 282.235C279.851 282.151 279.978 282.104 280.111 282.104H470.5C470.633 282.104 470.76 282.151 470.854 282.235C470.947 282.319 471 282.433 471 282.552C471 282.671 470.947 282.785 470.854 282.869C470.76 282.953 470.633 283 470.5 283Z" fill="#CCCCCC"/>
</g>
<defs>
<clipPath id="clip0">
<rect width="471" height="283" fill="white"/>
</clipPath>
</defs>
</svg>
