<svg width="650" height="517" viewBox="0 0 650 517" fill="none" xmlns="http://www.w3.org/2000/svg">
<g clip-path="url(#clip0)">
<path d="M484.634 510.031C475.641 502.432 470.179 490.428 471.611 478.743C473.044 467.057 481.916 456.314 493.425 453.833C504.933 451.351 518.052 458.221 521.548 469.463C523.472 447.788 525.688 425.206 537.212 406.748C547.646 390.035 565.719 378.076 585.305 375.936C604.891 373.797 625.513 381.877 637.729 397.337C649.944 412.796 652.935 435.271 644.379 453.019C638.077 466.094 626.466 475.824 614.3 483.74C574.989 509.105 527.84 519.42 481.528 512.787" fill="#F2F2F2"/>
<path d="M618.36 382.325C602.199 395.489 587.373 410.211 574.096 426.279C553.318 451.34 536.504 479.438 524.24 509.593C523.342 511.793 526.915 512.751 527.802 510.576C547.868 461.566 579.901 418.37 620.972 384.938C622.816 383.436 620.189 380.836 618.36 382.325Z" fill="white"/>
<path d="M158.838 515.232H107.838C106.114 515.23 104.462 514.544 103.244 513.326C102.025 512.107 101.34 510.455 101.338 508.732V402.732C101.34 401.008 102.025 399.356 103.244 398.138C104.462 396.919 106.114 396.234 107.838 396.232H158.838C160.561 396.234 162.213 396.919 163.432 398.138C164.65 399.356 165.336 401.008 165.338 402.732V508.732C165.336 510.455 164.65 512.107 163.432 513.326C162.213 514.544 160.561 515.23 158.838 515.232Z" fill="#FF8303"/>
<path d="M279.838 516.232H228.838C226.849 516.229 224.943 515.439 223.537 514.033C222.131 512.626 221.34 510.72 221.338 508.732V302.732C221.34 300.743 222.131 298.837 223.537 297.431C224.943 296.025 226.849 295.234 228.838 295.232H279.838C281.826 295.234 283.733 296.025 285.139 297.431C286.545 298.837 287.336 300.743 287.338 302.732V508.732C287.336 510.72 286.545 512.626 285.139 514.033C283.733 515.439 281.826 516.229 279.838 516.232V516.232ZM228.838 297.232C227.38 297.233 225.982 297.813 224.951 298.844C223.919 299.875 223.339 301.273 223.338 302.732V508.732C223.339 510.19 223.919 511.588 224.951 512.619C225.982 513.65 227.38 514.23 228.838 514.232H279.838C281.296 514.23 282.694 513.65 283.725 512.619C284.756 511.588 285.336 510.19 285.338 508.732V302.732C285.336 301.273 284.756 299.875 283.725 298.844C282.694 297.813 281.296 297.233 279.838 297.232H228.838Z" fill="#6D6D6B"/>
<path d="M400.838 516.232H349.838C347.849 516.229 345.943 515.439 344.537 514.033C343.131 512.626 342.34 510.72 342.338 508.732V171.732C342.34 169.743 343.131 167.837 344.537 166.431C345.943 165.025 347.849 164.234 349.838 164.232H400.838C402.826 164.234 404.733 165.025 406.139 166.431C407.545 167.837 408.336 169.743 408.338 171.732V508.732C408.336 510.72 407.545 512.626 406.139 514.033C404.733 515.439 402.826 516.229 400.838 516.232V516.232ZM349.838 166.232C348.38 166.233 346.982 166.813 345.951 167.844C344.919 168.875 344.339 170.273 344.338 171.732V508.732C344.339 510.19 344.919 511.588 345.951 512.619C346.982 513.65 348.38 514.23 349.838 514.232H400.838C402.296 514.23 403.694 513.65 404.725 512.619C405.756 511.588 406.336 510.19 406.338 508.732V171.732C406.336 170.273 405.756 168.875 404.725 167.844C403.694 166.813 402.296 166.233 400.838 166.232H349.838Z" fill="#6D6D6B"/>
<path d="M522.967 515.732H471.967C470.244 515.73 468.592 515.044 467.373 513.826C466.155 512.607 465.469 510.955 465.467 509.232V34.2316C465.469 32.5083 466.155 30.8562 467.373 29.6376C468.592 28.4191 470.244 27.7336 471.967 27.7316H522.967C524.69 27.7336 526.343 28.4191 527.561 29.6376C528.78 30.8562 529.465 32.5083 529.467 34.2316V509.232C529.465 510.955 528.78 512.607 527.561 513.826C526.343 515.044 524.69 515.73 522.967 515.732Z" fill="#FF8303"/>
<path d="M648.485 515.807H1.1907C0.875513 515.806 0.573534 515.68 0.350983 515.457C0.128431 515.234 0.003479 514.932 0.003479 514.617C0.003479 514.301 0.128431 513.999 0.350983 513.776C0.573534 513.553 0.875513 513.427 1.1907 513.426H648.485C648.8 513.427 649.102 513.553 649.324 513.776C649.547 513.999 649.672 514.301 649.672 514.617C649.672 514.932 649.547 515.234 649.324 515.457C649.102 515.68 648.8 515.806 648.485 515.807Z" fill="#6D6D6B"/>
<path d="M121.22 394.377L133.48 394.376L139.312 347.088L121.218 347.089L121.22 394.377Z" fill="#A0616A"/>
<path d="M144.044 59.2142C157.608 59.2142 168.605 48.2178 168.605 34.6531C168.605 21.0884 157.608 10.0921 144.044 10.0921C130.479 10.0921 119.483 21.0884 119.483 34.6531C119.483 48.2178 130.479 59.2142 144.044 59.2142Z" fill="#A0616A"/>
<path d="M205.798 227.358C205.983 225.9 205.846 224.419 205.397 223.019C204.948 221.619 204.197 220.335 203.197 219.257C202.198 218.179 200.974 217.333 199.613 216.779C198.251 216.225 196.785 215.976 195.316 216.05L177.54 183.441L173.54 197.441L185.719 227.326C186.006 229.785 187.186 232.052 189.034 233.699C190.882 235.345 193.269 236.257 195.744 236.261C198.219 236.265 200.61 235.361 202.463 233.72C204.316 232.079 205.503 229.816 205.798 227.358V227.358Z" fill="#A0616A"/>
<path d="M68.8348 356.113L78.7358 363.342L111.331 328.589L96.7168 317.92L68.8348 356.113Z" fill="#A0616A"/>
<path d="M91.12 386.478L60 363.758L68.7779 351.735L87.8743 365.676C91.0631 368.004 93.1966 371.504 93.8053 375.405C94.414 379.306 93.448 383.289 91.12 386.478V386.478L91.12 386.478Z" fill="#1B1A17"/>
<path d="M157.124 405.759L118.594 405.761L118.593 390.874L142.237 390.873C146.185 390.873 149.972 392.441 152.764 395.233C155.556 398.025 157.124 401.811 157.124 405.759V405.759V405.759Z" fill="#1B1A17"/>
<path d="M158.04 209.941C158.04 209.941 164.04 267.941 149.04 307.941L138.04 383.941H119.04L121.04 293.941L114.04 213.941C114.04 213.941 128.04 177.941 158.04 209.941Z" fill="#1B1A17"/>
<path d="M93.0399 213.94L113.04 282.94L74.0399 344.94L93.5399 361.44L138.04 291.94L125.04 206.94L93.0399 213.94Z" fill="#1B1A17"/>
<path d="M123.54 68.4406C123.54 68.4406 138.54 58.4405 155.54 80.4405L160.04 218.941C160.04 218.941 147.04 200.941 120.04 217.941C93.0397 234.941 87.0398 215.941 87.0398 215.941C87.0398 215.941 68.0397 72.9406 123.54 68.4406Z" fill="#CCCCCC"/>
<path d="M154.33 80.0914C158.644 80.3246 162.719 82.1449 165.772 85.202C168.825 88.2592 170.64 92.3372 170.867 96.6517L174.04 156.941L195.04 213.941L183.04 223.941L144.04 155.941L136.055 100.047C135.689 97.4856 135.896 94.8745 136.66 92.4021C137.424 89.9297 138.727 87.6575 140.475 85.749C142.222 83.8405 144.371 82.3432 146.767 81.3649C149.163 80.3867 151.746 79.9517 154.33 80.0914V80.0914Z" fill="#CCCCCC"/>
<path d="M125.997 53.0764C130.012 57.3535 137.469 55.0575 137.992 49.2143C138.033 48.7607 138.03 48.3041 137.983 47.851C137.713 45.2628 136.218 42.913 136.576 40.1801C136.657 39.5 136.91 38.8518 137.312 38.297C140.512 34.0124 148.023 40.2134 151.042 36.3347C152.894 33.9563 150.717 30.2117 152.138 27.5535C154.014 24.0451 159.568 25.7758 163.052 23.8544C166.928 21.7167 166.696 15.7702 164.145 12.1532C161.033 7.74223 155.578 5.38847 150.191 5.04922C144.803 4.70997 139.453 6.16631 134.424 8.12637C128.709 10.3534 123.042 13.4312 119.526 18.456C115.249 24.5667 114.837 32.782 116.976 39.9273C118.277 44.2739 122.718 49.5837 125.997 53.0764Z" fill="#1B1A17"/>
</g>
<defs>
<clipPath id="clip0">
<rect width="649.675" height="516.232" fill="white"/>
</clipPath>
</defs>
</svg>
